<svg xmlns="http://www.w3.org/2000/svg" xmlns:xlink="http://www.w3.org/1999/xlink" width="336" zoomAndPan="magnify" viewBox="0 0 252 82.499998" height="110" preserveAspectRatio="xMidYMid meet" version="1.0"><defs><g/><clipPath id="4b76d8f67c"><path d="M 25 2.972656 L 42 2.972656 L 42 33 L 25 33 Z M 25 2.972656 " clip-rule="nonzero"/></clipPath><clipPath id="b5d24667c2"><path d="M 33 42 L 49 42 L 49 73.789062 L 33 73.789062 Z M 33 42 " clip-rule="nonzero"/></clipPath></defs><g clip-path="url(#4b76d8f67c)"><path fill="#fff5f3" d="M 32.972656 32.050781 C 30.386719 28.648438 28.617188 24.695312 27.390625 20.628906 C 26.167969 16.558594 24.953125 11.878906 26.460938 7.730469 C 27.382812 5.183594 29.730469 2.996094 32.441406 2.996094 C 34.277344 2.996094 36.03125 4.011719 37.261719 5.394531 C 40.042969 8.558594 40.988281 13.65625 41.238281 17.730469 C 41.554688 22.546875 40.78125 27.183594 38.914062 31.632812 " fill-opacity="1" fill-rule="nonzero"/></g><path fill="#fff5f3" d="M 39.496094 32.1875 C 41.960938 28.324219 44.679688 24.566406 48.132812 21.546875 C 51.589844 18.53125 55.835938 16.28125 60.410156 15.859375 C 63.15625 15.609375 66.347656 16.269531 67.707031 18.664062 C 69.261719 21.398438 67.601562 24.921875 65.320312 27.09375 C 59.6875 32.476562 49.894531 35.089844 42.261719 36.210938 " fill-opacity="1" fill-rule="nonzero"/><path fill="#fff5f3" d="M 42.726562 36.636719 C 47.3125 36.636719 51.949219 36.898438 56.351562 38.179688 C 60.753906 39.460938 64.933594 41.835938 67.75 45.457031 C 69.441406 47.632812 70.601562 50.671875 69.308594 53.113281 C 67.835938 55.886719 63.980469 56.382812 60.917969 55.636719 C 53.347656 53.792969 45.871094 46.949219 40.8125 41.128906 " fill-opacity="1" fill-rule="nonzero"/><g clip-path="url(#b5d24667c2)"><path fill="#fff5f3" d="M 40.671875 42.144531 C 43.3125 45.886719 45.769531 49.824219 47.253906 54.160156 C 48.742188 58.496094 49.210938 63.289062 47.875 67.671875 C 47.070312 70.308594 45.246094 73.007812 42.511719 73.359375 C 39.386719 73.753906 36.757812 70.890625 35.605469 67.957031 C 32.757812 60.707031 34.046875 50.664062 35.898438 43.175781 " fill-opacity="1" fill-rule="nonzero"/></g><path fill="#fff5f3" d="M 34.550781 42.847656 C 33.453125 47.296875 32.089844 51.730469 29.789062 55.695312 C 27.488281 59.660156 24.179688 63.15625 19.988281 65.023438 C 17.46875 66.148438 14.238281 66.542969 12.175781 64.707031 C 9.824219 62.609375 10.269531 58.746094 11.730469 55.957031 C 15.335938 49.054688 23.769531 43.4375 30.640625 39.925781 " fill-opacity="1" fill-rule="nonzero"/><path fill="#fff5f3" d="M 30.304688 39.359375 C 27.960938 40.5 25.304688 40.773438 22.710938 41 C 20.421875 41.195312 18.117188 41.367188 15.832031 41.148438 C 13.675781 40.9375 11.609375 40.398438 9.628906 39.523438 C 7.644531 38.652344 5.847656 37.496094 4.238281 36.050781 C 3.417969 35.304688 2.648438 34.484375 2.183594 33.484375 C 0.75 30.386719 2.878906 26.53125 5.960938 25.0625 C 9.046875 23.597656 12.691406 23.988281 15.992188 24.863281 C 18.875 25.632812 21.628906 26.730469 24.246094 28.152344 C 26.867188 29.578125 29.285156 31.289062 31.496094 33.289062 " fill-opacity="1" fill-rule="nonzero"/><path fill="#fabf7a" d="M 42.246094 37.285156 C 42.246094 37.667969 42.210938 38.042969 42.136719 38.417969 C 42.0625 38.792969 41.953125 39.15625 41.804688 39.507812 C 41.660156 39.859375 41.480469 40.191406 41.269531 40.511719 C 41.058594 40.828125 40.816406 41.121094 40.546875 41.390625 C 40.277344 41.660156 39.984375 41.898438 39.667969 42.109375 C 39.351562 42.324219 39.015625 42.5 38.664062 42.648438 C 38.3125 42.792969 37.949219 42.902344 37.574219 42.976562 C 37.199219 43.050781 36.820312 43.089844 36.441406 43.089844 C 36.058594 43.089844 35.683594 43.050781 35.308594 42.976562 C 34.933594 42.902344 34.570312 42.792969 34.21875 42.648438 C 33.867188 42.5 33.53125 42.324219 33.214844 42.109375 C 32.898438 41.898438 32.605469 41.660156 32.335938 41.390625 C 32.066406 41.121094 31.824219 40.828125 31.613281 40.511719 C 31.402344 40.191406 31.222656 39.859375 31.074219 39.507812 C 30.929688 39.15625 30.820312 38.792969 30.746094 38.417969 C 30.671875 38.042969 30.632812 37.667969 30.632812 37.285156 C 30.632812 36.90625 30.671875 36.527344 30.746094 36.152344 C 30.820312 35.78125 30.929688 35.417969 31.074219 35.066406 C 31.222656 34.714844 31.402344 34.378906 31.613281 34.0625 C 31.824219 33.746094 32.066406 33.453125 32.335938 33.183594 C 32.605469 32.914062 32.898438 32.671875 33.214844 32.460938 C 33.53125 32.25 33.867188 32.070312 34.21875 31.925781 C 34.570312 31.777344 34.933594 31.667969 35.308594 31.59375 C 35.683594 31.519531 36.058594 31.484375 36.441406 31.484375 C 36.820312 31.484375 37.199219 31.519531 37.574219 31.59375 C 37.949219 31.667969 38.3125 31.777344 38.664062 31.925781 C 39.015625 32.070312 39.351562 32.25 39.667969 32.460938 C 39.984375 32.671875 40.277344 32.914062 40.546875 33.183594 C 40.816406 33.453125 41.058594 33.746094 41.269531 34.0625 C 41.480469 34.378906 41.660156 34.714844 41.804688 35.066406 C 41.953125 35.417969 42.0625 35.78125 42.136719 36.152344 C 42.210938 36.527344 42.246094 36.90625 42.246094 37.285156 Z M 42.246094 37.285156 " fill-opacity="1" fill-rule="nonzero"/><g fill="#444242" fill-opacity="1"><g transform="translate(53.774262, 47.016477)"><g><path d="M 12.21875 8.078125 C 12.664062 8.097656 13.109375 8.082031 13.546875 8.03125 C 13.992188 7.988281 14.421875 7.878906 14.828125 7.703125 C 16.046875 7.117188 16.460938 6.203125 16.078125 4.953125 C 15.867188 4.316406 15.539062 3.726562 15.09375 3.1875 C 14.570312 2.53125 14.003906 1.921875 13.390625 1.359375 C 12.773438 0.804688 12.132812 0.269531 11.46875 -0.25 C 11.101562 -0.519531 10.757812 -0.507812 10.4375 -0.21875 C 9.425781 0.53125 8.519531 1.367188 7.71875 2.296875 C 7.363281 2.722656 7.066406 3.1875 6.828125 3.6875 C 6.296875 4.914062 6.550781 5.957031 7.59375 6.8125 C 8.09375 7.195312 8.644531 7.476562 9.25 7.65625 C 10.21875 7.9375 11.207031 8.078125 12.21875 8.078125 Z M 12.828125 -1.890625 C 12.867188 -1.722656 12.941406 -1.582031 13.046875 -1.46875 C 13.160156 -1.363281 13.269531 -1.273438 13.375 -1.203125 C 13.457031 -1.148438 13.539062 -1.09375 13.625 -1.03125 C 13.925781 -0.757812 14.226562 -0.484375 14.53125 -0.203125 C 15.113281 0.304688 15.675781 0.8125 16.21875 1.3125 C 17.007812 2.039062 17.644531 2.890625 18.125 3.859375 C 18.601562 4.816406 18.726562 5.75 18.5 6.65625 C 18.269531 7.5625 17.554688 8.285156 16.359375 8.828125 C 15.859375 9.054688 15.332031 9.210938 14.78125 9.296875 C 13.695312 9.421875 12.609375 9.46875 11.515625 9.4375 C 10.429688 9.414062 9.359375 9.265625 8.296875 8.984375 C 7.773438 8.835938 7.273438 8.648438 6.796875 8.421875 C 6.316406 8.191406 5.882812 7.894531 5.5 7.53125 C 4.125 6.28125 3.832031 4.8125 4.625 3.125 C 4.945312 2.476562 5.359375 1.882812 5.859375 1.34375 C 6.671875 0.488281 7.539062 -0.300781 8.46875 -1.03125 C 8.925781 -1.394531 9.148438 -1.660156 9.140625 -1.828125 C 9.140625 -1.992188 8.875 -2.226562 8.34375 -2.53125 C 7.40625 -3.164062 6.457031 -3.796875 5.5 -4.421875 C 4.988281 -4.742188 4.484375 -5.070312 3.984375 -5.40625 C 3.671875 -5.613281 3.363281 -5.8125 3.0625 -6 C 2.289062 -6.488281 1.53125 -7 0.78125 -7.53125 C -0.0703125 -8.132812 -0.867188 -8.789062 -1.609375 -9.5 C -2.347656 -10.207031 -3 -11.007812 -3.5625 -11.90625 C -4.71875 -13.769531 -5.144531 -15.675781 -4.84375 -17.625 C -4.550781 -19.570312 -3.703125 -21.445312 -2.296875 -23.25 C -0.898438 -25.0625 0.851562 -26.6875 2.96875 -28.125 C 5.09375 -29.570312 7.394531 -30.742188 9.875 -31.640625 C 12.351562 -32.535156 14.820312 -33.050781 17.28125 -33.1875 C 19.738281 -33.320312 21.992188 -32.972656 24.046875 -32.140625 C 26.109375 -31.316406 27.804688 -29.894531 29.140625 -27.875 C 29.378906 -27.5 29.578125 -27.101562 29.734375 -26.6875 C 29.898438 -26.28125 29.984375 -25.847656 29.984375 -25.390625 C 29.984375 -24.921875 29.773438 -24.628906 29.359375 -24.515625 C 29.066406 -24.429688 28.800781 -24.429688 28.5625 -24.515625 C 28.320312 -24.609375 28.140625 -24.753906 28.015625 -24.953125 C 27.992188 -25.003906 27.972656 -25.066406 27.953125 -25.140625 C 27.941406 -25.191406 27.9375 -25.234375 27.9375 -25.265625 C 27.050781 -27.710938 25.738281 -29.457031 24 -30.5 C 22.269531 -31.539062 20.304688 -32.023438 18.109375 -31.953125 C 15.921875 -31.890625 13.6875 -31.414062 11.40625 -30.53125 C 9.125 -29.644531 6.976562 -28.507812 4.96875 -27.125 C 2.957031 -25.75 1.273438 -24.269531 -0.078125 -22.6875 C -1.429688 -21.113281 -2.273438 -19.582031 -2.609375 -18.09375 C -2.941406 -16.238281 -2.625 -14.523438 -1.65625 -12.953125 C -0.882812 -11.617188 0.0976562 -10.476562 1.296875 -9.53125 C 2.222656 -8.800781 3.164062 -8.109375 4.125 -7.453125 C 4.988281 -6.890625 5.847656 -6.335938 6.703125 -5.796875 C 7.878906 -5.054688 9.035156 -4.296875 10.171875 -3.515625 C 10.492188 -3.285156 10.796875 -3.179688 11.078125 -3.203125 C 11.359375 -3.222656 11.65625 -3.335938 11.96875 -3.546875 C 13.488281 -4.460938 14.988281 -5.304688 16.46875 -6.078125 C 17.957031 -6.859375 18.78125 -7.070312 18.9375 -6.71875 C 19.101562 -6.375 18.875 -5.972656 18.25 -5.515625 C 16.757812 -4.722656 15.328125 -3.835938 13.953125 -2.859375 C 13.878906 -2.816406 13.804688 -2.765625 13.734375 -2.703125 C 13.367188 -2.515625 13.066406 -2.242188 12.828125 -1.890625 Z M 12.828125 -1.890625 "/></g></g></g><g fill="#444242" fill-opacity="1"><g transform="translate(70.743384, 47.016477)"><g><path d="M 11.328125 -10.5625 C 11.972656 -10.59375 12.296875 -10.296875 12.296875 -9.671875 C 12.234375 -8.722656 12.09375 -7.789062 11.875 -6.875 C 11.65625 -5.96875 11.289062 -5.09375 10.78125 -4.25 C 10.144531 -3.125 9.171875 -2.601562 7.859375 -2.6875 C 7.085938 -2.738281 6.46875 -3.050781 6 -3.625 C 5.71875 -3.957031 5.515625 -4.109375 5.390625 -4.078125 C 5.265625 -4.046875 5.144531 -3.914062 5.03125 -3.6875 C 4.957031 -3.570312 4.867188 -3.445312 4.765625 -3.3125 C 4.460938 -2.894531 4.085938 -2.554688 3.640625 -2.296875 C 3.046875 -1.972656 2.476562 -1.882812 1.9375 -2.03125 C 1.394531 -2.175781 0.957031 -2.535156 0.625 -3.109375 C 0.238281 -3.828125 -0.00390625 -4.570312 -0.109375 -5.34375 C -0.210938 -6.113281 -0.207031 -6.890625 -0.09375 -7.671875 C -0.0078125 -8.117188 0.222656 -8.4375 0.609375 -8.625 C 1.003906 -8.8125 1.421875 -8.796875 1.859375 -8.578125 C 2.117188 -8.410156 2.210938 -8.160156 2.140625 -7.828125 C 2.015625 -7.304688 1.976562 -6.78125 2.03125 -6.25 C 2.082031 -5.71875 2.175781 -5.203125 2.3125 -4.703125 C 2.425781 -4.296875 2.554688 -4.117188 2.703125 -4.171875 C 2.859375 -4.234375 3.015625 -4.394531 3.171875 -4.65625 C 3.328125 -4.914062 3.453125 -5.148438 3.546875 -5.359375 C 3.578125 -5.398438 3.597656 -5.441406 3.609375 -5.484375 C 3.691406 -5.640625 3.757812 -5.804688 3.8125 -5.984375 C 3.875 -6.109375 3.941406 -6.253906 4.015625 -6.421875 C 4.210938 -6.859375 4.445312 -7.144531 4.71875 -7.28125 C 5 -7.425781 5.378906 -7.472656 5.859375 -7.421875 C 6.335938 -7.359375 6.675781 -7.109375 6.875 -6.671875 C 6.90625 -6.628906 6.925781 -6.578125 6.9375 -6.515625 C 7.1875 -5.960938 7.457031 -5.414062 7.75 -4.875 C 7.96875 -4.488281 8.203125 -4.410156 8.453125 -4.640625 C 8.703125 -4.878906 8.9375 -5.25 9.15625 -5.75 C 9.375 -6.257812 9.5625 -6.757812 9.71875 -7.25 C 9.875 -7.75 9.960938 -8.078125 9.984375 -8.234375 C 9.992188 -8.328125 10.007812 -8.421875 10.03125 -8.515625 C 10.101562 -8.898438 10.191406 -9.296875 10.296875 -9.703125 C 10.421875 -10.273438 10.765625 -10.5625 11.328125 -10.5625 Z M 11.328125 -10.5625 "/></g></g></g><g fill="#444242" fill-opacity="1"><g transform="translate(83.374931, 47.016477)"><g><path d="M 2.796875 -5.140625 C 2.785156 -5.140625 2.769531 -5.140625 2.75 -5.140625 C 2.75 -5.140625 2.757812 -5.140625 2.78125 -5.140625 C 2.78125 -5.140625 2.785156 -5.140625 2.796875 -5.140625 Z M 12 -6.46875 C 12.09375 -6.53125 12.242188 -6.601562 12.453125 -6.6875 C 12.671875 -6.769531 12.875 -6.816406 13.0625 -6.828125 C 13.257812 -6.835938 13.394531 -6.765625 13.46875 -6.609375 C 13.53125 -6.492188 13.546875 -6.382812 13.515625 -6.28125 C 13.484375 -6.175781 13.429688 -6.082031 13.359375 -6 C 12.867188 -5.476562 12.117188 -4.945312 11.109375 -4.40625 C 10.097656 -3.875 9.050781 -3.398438 7.96875 -2.984375 C 6.882812 -2.566406 5.984375 -2.300781 5.265625 -2.1875 C 4.429688 -2.03125 3.59375 -1.992188 2.75 -2.078125 C 1.707031 -2.210938 0.929688 -2.644531 0.421875 -3.375 C -0.0859375 -4.101562 -0.296875 -4.925781 -0.203125 -5.84375 C -0.046875 -6.851562 0.414062 -7.65625 1.1875 -8.25 C 1.96875 -8.851562 2.863281 -9.078125 3.875 -8.921875 C 4.488281 -8.847656 5.046875 -8.625 5.546875 -8.25 C 6.085938 -7.8125 6.328125 -7.304688 6.265625 -6.734375 C 6.210938 -6.171875 5.878906 -5.734375 5.265625 -5.421875 C 4.929688 -5.265625 4.566406 -5.164062 4.171875 -5.125 C 3.785156 -5.09375 3.328125 -5.097656 2.796875 -5.140625 C 2.796875 -5.140625 2.78125 -5.140625 2.75 -5.140625 C 2.726562 -5.140625 2.6875 -5.140625 2.625 -5.140625 C 2.570312 -5.140625 2.515625 -5.140625 2.453125 -5.140625 C 2.296875 -5.140625 2.191406 -5.09375 2.140625 -5 C 2.097656 -4.914062 2.097656 -4.8125 2.140625 -4.6875 C 2.429688 -3.96875 3 -3.585938 3.84375 -3.546875 C 4.6875 -3.503906 5.644531 -3.660156 6.71875 -4.015625 C 7.789062 -4.378906 8.804688 -4.796875 9.765625 -5.265625 C 10.734375 -5.742188 11.476562 -6.144531 12 -6.46875 Z M 2.78125 -7.3125 C 2.644531 -7.21875 2.550781 -7.101562 2.5 -6.96875 C 2.457031 -6.84375 2.429688 -6.734375 2.421875 -6.640625 C 2.410156 -6.554688 2.421875 -6.507812 2.453125 -6.5 C 2.492188 -6.476562 2.601562 -6.453125 2.78125 -6.421875 C 2.96875 -6.390625 3.171875 -6.382812 3.390625 -6.40625 C 3.617188 -6.425781 3.804688 -6.472656 3.953125 -6.546875 C 4.097656 -6.628906 4.144531 -6.765625 4.09375 -6.953125 C 4 -7.222656 3.8125 -7.394531 3.53125 -7.46875 C 3.257812 -7.539062 3.007812 -7.488281 2.78125 -7.3125 Z M 2.78125 -7.3125 "/></g></g></g><g fill="#444242" fill-opacity="1"><g transform="translate(95.520138, 47.016477)"><g><path d="M 2.796875 -5.140625 C 2.785156 -5.140625 2.769531 -5.140625 2.75 -5.140625 C 2.75 -5.140625 2.757812 -5.140625 2.78125 -5.140625 C 2.78125 -5.140625 2.785156 -5.140625 2.796875 -5.140625 Z M 12 -6.46875 C 12.09375 -6.53125 12.242188 -6.601562 12.453125 -6.6875 C 12.671875 -6.769531 12.875 -6.816406 13.0625 -6.828125 C 13.257812 -6.835938 13.394531 -6.765625 13.46875 -6.609375 C 13.53125 -6.492188 13.546875 -6.382812 13.515625 -6.28125 C 13.484375 -6.175781 13.429688 -6.082031 13.359375 -6 C 12.867188 -5.476562 12.117188 -4.945312 11.109375 -4.40625 C 10.097656 -3.875 9.050781 -3.398438 7.96875 -2.984375 C 6.882812 -2.566406 5.984375 -2.300781 5.265625 -2.1875 C 4.429688 -2.03125 3.59375 -1.992188 2.75 -2.078125 C 1.707031 -2.210938 0.929688 -2.644531 0.421875 -3.375 C -0.0859375 -4.101562 -0.296875 -4.925781 -0.203125 -5.84375 C -0.046875 -6.851562 0.414062 -7.65625 1.1875 -8.25 C 1.96875 -8.851562 2.863281 -9.078125 3.875 -8.921875 C 4.488281 -8.847656 5.046875 -8.625 5.546875 -8.25 C 6.085938 -7.8125 6.328125 -7.304688 6.265625 -6.734375 C 6.210938 -6.171875 5.878906 -5.734375 5.265625 -5.421875 C 4.929688 -5.265625 4.566406 -5.164062 4.171875 -5.125 C 3.785156 -5.09375 3.328125 -5.097656 2.796875 -5.140625 C 2.796875 -5.140625 2.78125 -5.140625 2.75 -5.140625 C 2.726562 -5.140625 2.6875 -5.140625 2.625 -5.140625 C 2.570312 -5.140625 2.515625 -5.140625 2.453125 -5.140625 C 2.296875 -5.140625 2.191406 -5.09375 2.140625 -5 C 2.097656 -4.914062 2.097656 -4.8125 2.140625 -4.6875 C 2.429688 -3.96875 3 -3.585938 3.84375 -3.546875 C 4.6875 -3.503906 5.644531 -3.660156 6.71875 -4.015625 C 7.789062 -4.378906 8.804688 -4.796875 9.765625 -5.265625 C 10.734375 -5.742188 11.476562 -6.144531 12 -6.46875 Z M 2.78125 -7.3125 C 2.644531 -7.21875 2.550781 -7.101562 2.5 -6.96875 C 2.457031 -6.84375 2.429688 -6.734375 2.421875 -6.640625 C 2.410156 -6.554688 2.421875 -6.507812 2.453125 -6.5 C 2.492188 -6.476562 2.601562 -6.453125 2.78125 -6.421875 C 2.96875 -6.390625 3.171875 -6.382812 3.390625 -6.40625 C 3.617188 -6.425781 3.804688 -6.472656 3.953125 -6.546875 C 4.097656 -6.628906 4.144531 -6.765625 4.09375 -6.953125 C 4 -7.222656 3.8125 -7.394531 3.53125 -7.46875 C 3.257812 -7.539062 3.007812 -7.488281 2.78125 -7.3125 Z M 2.78125 -7.3125 "/></g></g></g><g fill="#444242" fill-opacity="1"><g transform="translate(107.665345, 47.016477)"><g><path d="M 10.40625 -6.5 C 10.601562 -6.65625 10.75 -6.707031 10.84375 -6.65625 C 10.9375 -6.601562 11.003906 -6.503906 11.046875 -6.359375 C 11.085938 -6.222656 11.109375 -6.082031 11.109375 -5.9375 C 11.085938 -5.675781 11.03125 -5.425781 10.9375 -5.1875 C 10.851562 -4.945312 10.796875 -4.785156 10.765625 -4.703125 C 10.742188 -4.691406 10.734375 -4.6875 10.734375 -4.6875 C 10.460938 -4.007812 10.039062 -3.34375 9.46875 -2.6875 C 8.90625 -2.03125 8.238281 -1.5 7.46875 -1.09375 C 6.695312 -0.6875 5.878906 -0.507812 5.015625 -0.5625 C 3.796875 -0.707031 2.820312 -1.175781 2.09375 -1.96875 C 1.375 -2.769531 0.832031 -3.722656 0.46875 -4.828125 C 0.101562 -5.941406 -0.140625 -7.035156 -0.265625 -8.109375 C -0.585938 -10.773438 -0.679688 -13.457031 -0.546875 -16.15625 C -0.523438 -16.8125 -0.503906 -17.46875 -0.484375 -18.125 C -0.484375 -18.351562 -0.484375 -18.582031 -0.484375 -18.8125 C -0.484375 -19.238281 -0.6875 -19.453125 -1.09375 -19.453125 C -1.519531 -19.453125 -1.941406 -19.460938 -2.359375 -19.484375 C -2.828125 -19.484375 -3.300781 -19.484375 -3.78125 -19.484375 C -3.84375 -19.484375 -3.910156 -19.484375 -3.984375 -19.484375 C -4.316406 -19.441406 -4.628906 -19.5 -4.921875 -19.65625 C -5.046875 -19.71875 -5.148438 -19.800781 -5.234375 -19.90625 C -5.328125 -20.007812 -5.375 -20.140625 -5.375 -20.296875 C -5.351562 -20.441406 -5.289062 -20.554688 -5.1875 -20.640625 C -5.082031 -20.734375 -4.953125 -20.78125 -4.796875 -20.78125 C -4.234375 -20.800781 -3.671875 -20.8125 -3.109375 -20.8125 C -2.773438 -20.8125 -2.441406 -20.8125 -2.109375 -20.8125 C -1.671875 -20.8125 -1.226562 -20.832031 -0.78125 -20.875 C -0.53125 -20.894531 -0.375 -21.039062 -0.3125 -21.3125 C -0.28125 -21.632812 -0.25 -21.957031 -0.21875 -22.28125 C -0.15625 -23.34375 -0.0820312 -24.40625 0 -25.46875 C 0.0625 -26.195312 0.117188 -26.914062 0.171875 -27.625 C 0.171875 -27.65625 0.171875 -27.679688 0.171875 -27.703125 C 0.171875 -27.847656 0.179688 -27.988281 0.203125 -28.125 C 0.359375 -28.738281 0.773438 -29.03125 1.453125 -29 C 2.023438 -28.957031 2.34375 -28.640625 2.40625 -28.046875 C 2.425781 -27.648438 2.425781 -27.253906 2.40625 -26.859375 C 2.40625 -26.703125 2.40625 -26.539062 2.40625 -26.375 C 2.40625 -26.375 2.394531 -26.375 2.375 -26.375 C 2.351562 -25.925781 2.332031 -25.476562 2.3125 -25.03125 C 2.226562 -24.03125 2.171875 -23.019531 2.140625 -22 C 2.109375 -21.457031 2.15625 -21.117188 2.28125 -20.984375 C 2.414062 -20.847656 2.773438 -20.789062 3.359375 -20.8125 C 4.441406 -20.789062 5.519531 -20.78125 6.59375 -20.78125 C 7.363281 -20.78125 8.132812 -20.769531 8.90625 -20.75 C 8.988281 -20.75 9.066406 -20.75 9.140625 -20.75 C 9.328125 -20.769531 9.507812 -20.765625 9.6875 -20.734375 C 9.863281 -20.703125 10.039062 -20.640625 10.21875 -20.546875 C 10.269531 -20.492188 10.316406 -20.4375 10.359375 -20.375 C 10.410156 -20.320312 10.453125 -20.25 10.484375 -20.15625 C 10.484375 -20.050781 10.453125 -19.96875 10.390625 -19.90625 C 10.328125 -19.851562 10.269531 -19.804688 10.21875 -19.765625 C 9.863281 -19.578125 9.492188 -19.5 9.109375 -19.53125 C 9.054688 -19.53125 8.988281 -19.53125 8.90625 -19.53125 C 7.75 -19.53125 6.601562 -19.523438 5.46875 -19.515625 C 4.832031 -19.492188 4.1875 -19.484375 3.53125 -19.484375 C 3.488281 -19.484375 3.453125 -19.484375 3.421875 -19.484375 C 3.128906 -19.484375 2.832031 -19.472656 2.53125 -19.453125 C 2.207031 -19.410156 2.019531 -19.234375 1.96875 -18.921875 C 1.925781 -18.753906 1.90625 -18.585938 1.90625 -18.421875 C 1.832031 -16.710938 1.800781 -15.003906 1.8125 -13.296875 C 1.820312 -11.597656 1.929688 -9.910156 2.140625 -8.234375 C 2.316406 -6.878906 2.671875 -5.582031 3.203125 -4.34375 C 3.492188 -3.675781 3.847656 -3.148438 4.265625 -2.765625 C 4.679688 -2.378906 5.148438 -2.21875 5.671875 -2.28125 C 6.628906 -2.4375 7.375 -2.773438 7.90625 -3.296875 C 8.4375 -3.828125 8.882812 -4.398438 9.25 -5.015625 C 9.601562 -5.617188 9.988281 -6.113281 10.40625 -6.5 Z M 10.40625 -6.5 "/></g></g></g><g fill="#444242" fill-opacity="1"><g transform="translate(117.273735, 47.016477)"><g/></g></g><g fill="#444242" fill-opacity="1"><g transform="translate(127.670775, 47.016477)"><g><path d="M 36.640625 -5.71875 C 36.429688 -5.445312 36.195312 -5.179688 35.9375 -4.921875 C 35.8125 -4.773438 35.664062 -4.625 35.5 -4.46875 C 33.21875 -1.863281 30.8125 0.617188 28.28125 2.984375 C 25.988281 5.148438 23.53125 7.09375 20.90625 8.8125 C 19.519531 9.695312 18.078125 10.441406 16.578125 11.046875 C 15.085938 11.648438 13.53125 12.085938 11.90625 12.359375 C 10.289062 12.628906 8.675781 12.675781 7.0625 12.5 C 4.664062 12.175781 2.820312 11.367188 1.53125 10.078125 C 0.238281 8.796875 -0.625 7.210938 -1.0625 5.328125 C -1.507812 3.441406 -1.644531 1.4375 -1.46875 -0.6875 C -1.300781 -2.820312 -0.945312 -4.890625 -0.40625 -6.890625 C 0.132812 -8.898438 0.742188 -10.671875 1.421875 -12.203125 C 2.785156 -15.316406 4.398438 -18.269531 6.265625 -21.0625 C 8.140625 -23.863281 10.289062 -26.476562 12.71875 -28.90625 C 13.0625 -29.257812 13.203125 -29.488281 13.140625 -29.59375 C 13.085938 -29.695312 12.898438 -29.785156 12.578125 -29.859375 C 12.421875 -29.878906 12.253906 -29.921875 12.078125 -29.984375 C 11.273438 -30.234375 10.488281 -30.492188 9.71875 -30.765625 C 8.40625 -31.210938 7.097656 -31.628906 5.796875 -32.015625 C 4.492188 -32.398438 3.179688 -32.710938 1.859375 -32.953125 C 0.671875 -33.160156 -0.507812 -33.21875 -1.6875 -33.125 C -2.53125 -33.09375 -3.316406 -32.851562 -4.046875 -32.40625 C -4.546875 -32.113281 -4.96875 -31.765625 -5.3125 -31.359375 C -5.664062 -30.960938 -5.867188 -30.441406 -5.921875 -29.796875 C -5.984375 -29.203125 -6.398438 -28.972656 -7.171875 -29.109375 C -7.671875 -29.179688 -7.921875 -29.488281 -7.921875 -30.03125 C -7.921875 -30.414062 -7.84375 -30.769531 -7.6875 -31.09375 C -7.539062 -31.414062 -7.335938 -31.722656 -7.078125 -32.015625 C -6.160156 -33.109375 -4.988281 -33.804688 -3.5625 -34.109375 C -1.8125 -34.492188 -0.0351562 -34.566406 1.765625 -34.328125 C 3.078125 -34.128906 4.363281 -33.851562 5.625 -33.5 C 6.882812 -33.15625 8.144531 -32.78125 9.40625 -32.375 C 9.507812 -32.34375 9.613281 -32.316406 9.71875 -32.296875 C 10.101562 -32.160156 10.488281 -32.035156 10.875 -31.921875 C 11.832031 -31.648438 12.773438 -31.34375 13.703125 -31 C 14.066406 -30.851562 14.394531 -30.816406 14.6875 -30.890625 C 14.976562 -30.960938 15.265625 -31.113281 15.546875 -31.34375 C 16.734375 -32.300781 18.007812 -33.109375 19.375 -33.765625 C 21.125 -34.671875 22.992188 -35.191406 24.984375 -35.328125 C 25.597656 -35.378906 26.207031 -35.363281 26.8125 -35.28125 C 27.425781 -35.195312 28.007812 -35.019531 28.5625 -34.75 C 29.476562 -34.289062 30.003906 -33.671875 30.140625 -32.890625 C 30.285156 -32.109375 30.023438 -31.34375 29.359375 -30.59375 C 28.734375 -29.9375 27.988281 -29.453125 27.125 -29.140625 C 26.082031 -28.710938 25.003906 -28.460938 23.890625 -28.390625 C 22.765625 -28.316406 21.640625 -28.289062 20.515625 -28.3125 C 19.398438 -28.34375 18.296875 -28.46875 17.203125 -28.6875 C 17.128906 -28.695312 17.050781 -28.710938 16.96875 -28.734375 C 16.5625 -28.828125 16.191406 -28.867188 15.859375 -28.859375 C 15.535156 -28.859375 15.207031 -28.691406 14.875 -28.359375 C 11.976562 -25.503906 9.441406 -22.304688 7.265625 -18.765625 C 5.097656 -15.234375 3.367188 -11.550781 2.078125 -7.71875 C 1.597656 -6.363281 1.21875 -4.859375 0.9375 -3.203125 C 0.65625 -1.554688 0.550781 0.09375 0.625 1.75 C 0.707031 3.40625 1.0625 4.953125 1.6875 6.390625 C 2.3125 7.828125 3.300781 9.023438 4.65625 9.984375 C 5.789062 10.753906 7.039062 11.164062 8.40625 11.21875 C 10.445312 11.269531 12.425781 10.945312 14.34375 10.25 C 16.40625 9.476562 18.332031 8.46875 20.125 7.21875 C 21.695312 6.132812 23.195312 4.96875 24.625 3.71875 C 26.0625 2.476562 27.472656 1.195312 28.859375 -0.125 C 29.378906 -0.613281 30.257812 -1.4375 31.5 -2.59375 C 32.75 -3.75 33.890625 -4.769531 34.921875 -5.65625 C 35.097656 -5.8125 35.265625 -5.96875 35.421875 -6.125 C 35.742188 -6.414062 36.03125 -6.644531 36.28125 -6.8125 C 36.53125 -6.988281 36.773438 -7.054688 37.015625 -7.015625 C 37.453125 -6.972656 37.328125 -6.539062 36.640625 -5.71875 Z M 24.890625 -34 C 23.453125 -33.78125 22.097656 -33.34375 20.828125 -32.6875 C 19.554688 -32.039062 18.3125 -31.238281 17.09375 -30.28125 C 18.164062 -29.90625 19.300781 -29.671875 20.5 -29.578125 C 21.695312 -29.484375 22.796875 -29.507812 23.796875 -29.65625 C 24.691406 -29.789062 25.539062 -30.0625 26.34375 -30.46875 C 26.863281 -30.726562 27.296875 -31.078125 27.640625 -31.515625 C 27.929688 -31.960938 28.023438 -32.382812 27.921875 -32.78125 C 27.816406 -33.1875 27.523438 -33.492188 27.046875 -33.703125 C 26.347656 -33.992188 25.628906 -34.09375 24.890625 -34 Z M 24.890625 -34 "/></g></g></g><g fill="#444242" fill-opacity="1"><g transform="translate(163.659495, 47.016477)"><g><path d="M 12.046875 -6.609375 C 12.140625 -6.585938 12.203125 -6.554688 12.234375 -6.515625 C 12.273438 -6.484375 12.316406 -6.410156 12.359375 -6.296875 C 12.390625 -6.179688 12.347656 -6.046875 12.234375 -5.890625 C 12.117188 -5.734375 12.015625 -5.609375 11.921875 -5.515625 C 11.203125 -4.835938 10.363281 -4.429688 9.40625 -4.296875 C 8.851562 -4.222656 8.300781 -4.203125 7.75 -4.234375 C 7.195312 -4.273438 6.648438 -4.410156 6.109375 -4.640625 C 5.722656 -4.828125 5.363281 -4.769531 5.03125 -4.46875 C 4.34375 -3.832031 3.617188 -3.226562 2.859375 -2.65625 C 2.472656 -2.363281 2.066406 -2.117188 1.640625 -1.921875 C 1.222656 -1.734375 0.765625 -1.628906 0.265625 -1.609375 C -1.203125 -1.628906 -1.78125 -2.34375 -1.46875 -3.75 C -1.457031 -3.8125 -1.4375 -3.859375 -1.40625 -3.890625 C -0.988281 -5.023438 -0.4375 -6.050781 0.25 -6.96875 C 0.945312 -7.882812 1.828125 -8.648438 2.890625 -9.265625 C 3.585938 -9.679688 4.34375 -9.835938 5.15625 -9.734375 C 5.363281 -9.691406 5.5625 -9.613281 5.75 -9.5 C 5.988281 -9.382812 6.085938 -9.203125 6.046875 -8.953125 C 6.023438 -8.867188 5.984375 -8.796875 5.921875 -8.734375 C 5.867188 -8.679688 5.8125 -8.628906 5.75 -8.578125 C 5.71875 -8.535156 5.671875 -8.503906 5.609375 -8.484375 C 5.554688 -8.472656 5.5 -8.46875 5.4375 -8.46875 C 4.863281 -8.445312 4.367188 -8.273438 3.953125 -7.953125 C 3.535156 -7.640625 3.15625 -7.28125 2.8125 -6.875 C 2.425781 -6.445312 2.066406 -5.972656 1.734375 -5.453125 C 1.410156 -4.941406 1.144531 -4.328125 0.9375 -3.609375 C 1.707031 -4.046875 2.3125 -4.484375 2.75 -4.921875 C 2.84375 -5.023438 2.9375 -5.113281 3.03125 -5.1875 C 3.113281 -5.269531 3.191406 -5.34375 3.265625 -5.40625 C 3.660156 -5.757812 4.066406 -6.070312 4.484375 -6.34375 C 4.960938 -6.613281 5.4375 -6.75 5.90625 -6.75 C 6.382812 -6.75 6.847656 -6.554688 7.296875 -6.171875 C 7.910156 -5.628906 8.503906 -5.414062 9.078125 -5.53125 C 9.660156 -5.65625 10.203125 -5.863281 10.703125 -6.15625 C 11.210938 -6.457031 11.660156 -6.609375 12.046875 -6.609375 Z M 12.046875 -6.609375 "/></g></g></g><g fill="#444242" fill-opacity="1"><g transform="translate(174.792608, 47.016477)"><g><path d="M 11.6875 -6.203125 C 12.007812 -6.535156 12.296875 -6.664062 12.546875 -6.59375 C 12.796875 -6.53125 12.953125 -6.347656 13.015625 -6.046875 C 13.078125 -5.742188 12.988281 -5.410156 12.75 -5.046875 C 12.269531 -4.335938 11.59375 -3.570312 10.71875 -2.75 C 9.84375 -1.9375 8.894531 -1.222656 7.875 -0.609375 C 6.863281 -0.00390625 5.910156 0.320312 5.015625 0.375 C 3.179688 0.476562 2.320312 -0.394531 2.4375 -2.25 C 2.445312 -2.488281 2.492188 -2.816406 2.578125 -3.234375 C 2.648438 -3.640625 2.710938 -4.03125 2.765625 -4.40625 C 2.816406 -4.78125 2.789062 -5.035156 2.6875 -5.171875 C 2.570312 -5.285156 2.4375 -5.34375 2.28125 -5.34375 C 2.125 -5.34375 1.957031 -5.320312 1.78125 -5.28125 C 1.59375 -5.238281 1.414062 -5.234375 1.25 -5.265625 C 0.351562 -5.359375 -0.109375 -5.816406 -0.140625 -6.640625 C -0.160156 -7.773438 0.046875 -8.863281 0.484375 -9.90625 C 0.628906 -10.226562 0.894531 -10.441406 1.28125 -10.546875 C 1.664062 -10.660156 2.019531 -10.617188 2.34375 -10.421875 C 2.550781 -10.296875 2.644531 -10.117188 2.625 -9.890625 C 2.59375 -9.566406 2.535156 -9.253906 2.453125 -8.953125 C 2.421875 -8.816406 2.390625 -8.679688 2.359375 -8.546875 C 2.191406 -7.734375 2.191406 -7.3125 2.359375 -7.28125 C 2.535156 -7.257812 2.914062 -7.476562 3.5 -7.9375 C 3.925781 -8.25 4.398438 -8.378906 4.921875 -8.328125 C 5.609375 -8.265625 5.882812 -7.878906 5.75 -7.171875 C 5.644531 -6.679688 5.53125 -6.1875 5.40625 -5.6875 C 5.144531 -4.664062 4.941406 -3.632812 4.796875 -2.59375 C 4.742188 -1.882812 4.867188 -1.46875 5.171875 -1.34375 C 5.484375 -1.226562 5.894531 -1.300781 6.40625 -1.5625 C 6.914062 -1.820312 7.453125 -2.171875 8.015625 -2.609375 C 8.585938 -3.054688 9.085938 -3.492188 9.515625 -3.921875 C 9.953125 -4.347656 10.25 -4.65625 10.40625 -4.84375 C 10.488281 -4.945312 10.609375 -5.082031 10.765625 -5.25 C 10.929688 -5.425781 11.101562 -5.597656 11.28125 -5.765625 C 11.46875 -5.960938 11.601562 -6.109375 11.6875 -6.203125 Z M 11.6875 -6.203125 "/></g></g></g><g fill="#444242" fill-opacity="1"><g transform="translate(186.136028, 47.016477)"><g><path d="M 14.546875 -6.875 C 14.867188 -6.925781 15.070312 -6.914062 15.15625 -6.84375 C 15.238281 -6.769531 15.253906 -6.644531 15.203125 -6.46875 C 15.191406 -6.15625 15.066406 -5.882812 14.828125 -5.65625 C 14.597656 -5.425781 14.300781 -5.222656 13.9375 -5.046875 C 13.0625 -4.640625 12.207031 -4.40625 11.375 -4.34375 C 10.550781 -4.28125 9.691406 -4.351562 8.796875 -4.5625 C 8.390625 -4.675781 8.046875 -4.679688 7.765625 -4.578125 C 7.484375 -4.472656 7.203125 -4.148438 6.921875 -3.609375 C 6.203125 -2.222656 5.0625 -1.441406 3.5 -1.265625 C 2.320312 -1.148438 1.453125 -1.367188 0.890625 -1.921875 C 0.328125 -2.484375 -0.0234375 -3.195312 -0.171875 -4.0625 C -0.347656 -4.957031 -0.3125 -5.796875 -0.0625 -6.578125 C 0.1875 -7.359375 0.601562 -8.082031 1.1875 -8.75 C 1.632812 -9.238281 2.1875 -9.441406 2.84375 -9.359375 C 3.144531 -9.359375 3.382812 -9.242188 3.5625 -9.015625 C 3.65625 -8.859375 3.671875 -8.722656 3.609375 -8.609375 C 3.546875 -8.492188 3.460938 -8.390625 3.359375 -8.296875 C 2.410156 -7.304688 1.96875 -6.132812 2.03125 -4.78125 C 2.039062 -4.15625 2.222656 -3.578125 2.578125 -3.046875 C 2.878906 -2.609375 3.265625 -2.546875 3.734375 -2.859375 C 4.171875 -3.203125 4.554688 -3.679688 4.890625 -4.296875 C 5.234375 -4.910156 5.425781 -5.539062 5.46875 -6.1875 C 5.519531 -6.84375 5.34375 -7.414062 4.9375 -7.90625 C 4.726562 -8.101562 4.53125 -8.242188 4.34375 -8.328125 C 4.238281 -8.378906 4.144531 -8.425781 4.0625 -8.46875 C 3.988281 -8.519531 3.953125 -8.582031 3.953125 -8.65625 C 3.941406 -9.101562 4.109375 -9.425781 4.453125 -9.625 C 4.796875 -9.832031 5.21875 -9.9375 5.71875 -9.9375 C 6.226562 -9.9375 6.695312 -9.832031 7.125 -9.625 C 7.5625 -9.425781 7.847656 -9.132812 7.984375 -8.75 C 8.117188 -8.25 8.15625 -7.75 8.09375 -7.25 C 8.082031 -6.820312 8.257812 -6.492188 8.625 -6.265625 C 9.445312 -5.691406 10.347656 -5.488281 11.328125 -5.65625 C 11.742188 -5.726562 12.117188 -5.832031 12.453125 -5.96875 C 12.796875 -6.101562 13.117188 -6.253906 13.421875 -6.421875 C 13.828125 -6.628906 14.203125 -6.78125 14.546875 -6.875 Z M 14.546875 -6.875 "/></g></g></g><g fill="#444242" fill-opacity="1"><g transform="translate(199.989976, 47.016477)"><g><path d="M 11.15625 -6.328125 C 11.539062 -6.691406 11.863281 -6.757812 12.125 -6.53125 C 12.382812 -6.3125 12.382812 -5.894531 12.125 -5.28125 C 11.519531 -4.101562 10.742188 -3.003906 9.796875 -1.984375 C 8.859375 -0.960938 7.785156 -0.207031 6.578125 0.28125 C 6.066406 0.445312 5.546875 0.53125 5.015625 0.53125 C 4.484375 0.53125 3.957031 0.460938 3.4375 0.328125 C 2.9375 0.210938 2.515625 0 2.171875 -0.3125 C 1.835938 -0.632812 1.546875 -1.007812 1.296875 -1.4375 C 0.566406 -2.820312 0.101562 -4.820312 -0.09375 -7.4375 C -0.300781 -10.050781 -0.320312 -12.90625 -0.15625 -16 C 0 -19.09375 0.25 -22.054688 0.59375 -24.890625 C 0.945312 -27.722656 1.304688 -30.066406 1.671875 -31.921875 C 1.847656 -32.691406 2.109375 -33.421875 2.453125 -34.109375 C 2.835938 -34.828125 3.4375 -35.15625 4.25 -35.09375 C 5 -35.09375 5.519531 -34.738281 5.8125 -34.03125 C 6.113281 -33.125 6.289062 -32.195312 6.34375 -31.25 C 6.488281 -29.007812 6.425781 -26.78125 6.15625 -24.5625 C 5.882812 -22.425781 5.546875 -20.425781 5.140625 -18.5625 C 4.734375 -16.707031 4.3125 -14.882812 3.875 -13.09375 C 3.3125 -10.90625 2.78125 -8.617188 2.28125 -6.234375 C 2.300781 -5.984375 2.328125 -5.765625 2.359375 -5.578125 C 2.421875 -4.898438 2.515625 -4.316406 2.640625 -3.828125 C 2.765625 -3.335938 3.03125 -2.734375 3.4375 -2.015625 C 3.820312 -1.335938 4.304688 -0.976562 4.890625 -0.9375 C 5.484375 -0.894531 6.085938 -1.054688 6.703125 -1.421875 C 7.328125 -1.796875 7.894531 -2.238281 8.40625 -2.75 C 8.925781 -3.257812 9.332031 -3.726562 9.625 -4.15625 C 9.695312 -4.269531 9.84375 -4.484375 10.0625 -4.796875 C 10.28125 -5.109375 10.492188 -5.410156 10.703125 -5.703125 C 10.910156 -6.003906 11.0625 -6.210938 11.15625 -6.328125 Z M 2.03125 -13.296875 C 2.269531 -13.929688 2.515625 -14.957031 2.765625 -16.375 C 3.023438 -17.789062 3.253906 -19.363281 3.453125 -21.09375 C 3.660156 -22.832031 3.816406 -24.488281 3.921875 -26.0625 C 4.023438 -27.632812 4.0625 -28.890625 4.03125 -29.828125 C 4 -30.773438 3.878906 -31.171875 3.671875 -31.015625 C 3.359375 -29.691406 3.15625 -28.457031 3.0625 -27.3125 C 3 -26.71875 2.910156 -25.832031 2.796875 -24.65625 C 2.566406 -22.613281 2.351562 -20.441406 2.15625 -18.140625 C 1.96875 -15.835938 1.925781 -14.222656 2.03125 -13.296875 Z M 2.03125 -13.296875 "/></g></g></g><g fill="#444242" fill-opacity="1"><g transform="translate(210.965359, 47.016477)"><g><path d="M 9.5625 -6.578125 C 9.675781 -6.523438 9.726562 -6.425781 9.71875 -6.28125 C 9.71875 -6.132812 9.675781 -6.003906 9.59375 -5.890625 C 9 -5.003906 8.359375 -4.21875 7.671875 -3.53125 C 6.992188 -2.851562 6.242188 -2.34375 5.421875 -2 C 4.597656 -1.664062 3.660156 -1.570312 2.609375 -1.71875 C 1.890625 -1.832031 1.347656 -2.070312 0.984375 -2.4375 C 0.628906 -2.8125 0.367188 -3.335938 0.203125 -4.015625 C -0.0859375 -5.066406 -0.15625 -6.15625 0 -7.28125 C 0.132812 -7.925781 0.535156 -8.265625 1.203125 -8.296875 C 1.804688 -8.296875 2.132812 -8.023438 2.1875 -7.484375 C 2.207031 -7.035156 2.207031 -6.59375 2.1875 -6.15625 C 2.1875 -6.09375 2.1875 -6.035156 2.1875 -5.984375 C 2.15625 -4.785156 2.351562 -3.960938 2.78125 -3.515625 C 3.207031 -3.078125 3.757812 -2.960938 4.4375 -3.171875 C 5.125 -3.378906 5.851562 -3.859375 6.625 -4.609375 C 6.71875 -4.710938 6.835938 -4.847656 6.984375 -5.015625 C 7.128906 -5.179688 7.289062 -5.347656 7.46875 -5.515625 C 7.707031 -5.765625 7.910156 -5.976562 8.078125 -6.15625 C 8.554688 -6.632812 9.050781 -6.773438 9.5625 -6.578125 Z M 1.03125 -10.234375 C 0.5 -10.265625 0.195312 -10.550781 0.125 -11.09375 C 0.0625 -11.507812 0.125 -11.910156 0.3125 -12.296875 C 0.488281 -12.628906 0.773438 -12.859375 1.171875 -12.984375 C 1.566406 -13.109375 1.9375 -13.070312 2.28125 -12.875 C 2.414062 -12.8125 2.507812 -12.710938 2.5625 -12.578125 C 2.625 -12.453125 2.644531 -12.351562 2.625 -12.28125 C 2.613281 -10.894531 2.082031 -10.210938 1.03125 -10.234375 Z M 1.03125 -10.234375 "/></g></g></g><g fill="#444242" fill-opacity="1"><g transform="translate(219.022738, 47.016477)"><g><path d="M 17.359375 -6.171875 C 17.359375 -6.171875 17.363281 -6.171875 17.375 -6.171875 C 17.46875 -6.160156 17.5625 -6.128906 17.65625 -6.078125 C 17.757812 -6.023438 17.820312 -5.929688 17.84375 -5.796875 C 17.90625 -5.546875 17.835938 -5.351562 17.640625 -5.21875 C 16.847656 -4.664062 16.003906 -4.234375 15.109375 -3.921875 C 14.285156 -3.648438 13.457031 -3.476562 12.625 -3.40625 C 11.800781 -3.34375 10.96875 -3.351562 10.125 -3.4375 C 9.03125 -3.550781 8.144531 -4.070312 7.46875 -5 C 7.257812 -5.28125 7.046875 -5.566406 6.828125 -5.859375 C 6.609375 -6.148438 6.390625 -6.445312 6.171875 -6.75 C 5.972656 -7.007812 5.726562 -7.039062 5.4375 -6.84375 C 5.09375 -6.59375 4.78125 -6.304688 4.5 -5.984375 C 4.21875 -5.671875 3.953125 -5.34375 3.703125 -5 C 3.691406 -4.945312 3.671875 -4.90625 3.640625 -4.875 C 3.546875 -4.757812 3.453125 -4.632812 3.359375 -4.5 C 3.242188 -4.289062 3.109375 -4.097656 2.953125 -3.921875 C 2.703125 -3.628906 2.375 -3.441406 1.96875 -3.359375 C 1.5625 -3.273438 1.175781 -3.304688 0.8125 -3.453125 C 0.539062 -3.597656 0.367188 -3.800781 0.296875 -4.0625 C 0.046875 -5.050781 -0.109375 -6.046875 -0.171875 -7.046875 C -0.171875 -7.585938 0.078125 -7.90625 0.578125 -8 C 1.160156 -8.132812 1.578125 -7.953125 1.828125 -7.453125 C 1.859375 -7.367188 1.882812 -7.273438 1.90625 -7.171875 C 1.9375 -7.054688 1.972656 -6.941406 2.015625 -6.828125 C 2.066406 -6.722656 2.15625 -6.632812 2.28125 -6.5625 C 2.445312 -6.6875 2.59375 -6.804688 2.71875 -6.921875 C 3.03125 -7.191406 3.328125 -7.457031 3.609375 -7.71875 C 3.960938 -8.007812 4.332031 -8.210938 4.71875 -8.328125 C 5.101562 -8.453125 5.515625 -8.515625 5.953125 -8.515625 C 6.984375 -8.515625 7.796875 -8.113281 8.390625 -7.3125 C 8.503906 -7.132812 8.617188 -6.96875 8.734375 -6.8125 C 9.003906 -6.40625 9.28125 -6.019531 9.5625 -5.65625 C 10.03125 -5.0625 10.648438 -4.753906 11.421875 -4.734375 C 12.210938 -4.703125 12.96875 -4.773438 13.6875 -4.953125 C 14.414062 -5.128906 15.113281 -5.398438 15.78125 -5.765625 C 15.8125 -5.785156 15.84375 -5.8125 15.875 -5.84375 C 16.101562 -5.96875 16.335938 -6.066406 16.578125 -6.140625 C 16.816406 -6.222656 17.078125 -6.234375 17.359375 -6.171875 Z M 17.359375 -6.171875 "/></g></g></g><g fill="#444242" fill-opacity="1"><g transform="translate(235.242636, 47.016477)"><g><path d="M 12.046875 -6.609375 C 12.140625 -6.585938 12.203125 -6.554688 12.234375 -6.515625 C 12.273438 -6.484375 12.316406 -6.410156 12.359375 -6.296875 C 12.390625 -6.179688 12.347656 -6.046875 12.234375 -5.890625 C 12.117188 -5.734375 12.015625 -5.609375 11.921875 -5.515625 C 11.203125 -4.835938 10.363281 -4.429688 9.40625 -4.296875 C 8.851562 -4.222656 8.300781 -4.203125 7.75 -4.234375 C 7.195312 -4.273438 6.648438 -4.410156 6.109375 -4.640625 C 5.722656 -4.828125 5.363281 -4.769531 5.03125 -4.46875 C 4.34375 -3.832031 3.617188 -3.226562 2.859375 -2.65625 C 2.472656 -2.363281 2.066406 -2.117188 1.640625 -1.921875 C 1.222656 -1.734375 0.765625 -1.628906 0.265625 -1.609375 C -1.203125 -1.628906 -1.78125 -2.34375 -1.46875 -3.75 C -1.457031 -3.8125 -1.4375 -3.859375 -1.40625 -3.890625 C -0.988281 -5.023438 -0.4375 -6.050781 0.25 -6.96875 C 0.945312 -7.882812 1.828125 -8.648438 2.890625 -9.265625 C 3.585938 -9.679688 4.34375 -9.835938 5.15625 -9.734375 C 5.363281 -9.691406 5.5625 -9.613281 5.75 -9.5 C 5.988281 -9.382812 6.085938 -9.203125 6.046875 -8.953125 C 6.023438 -8.867188 5.984375 -8.796875 5.921875 -8.734375 C 5.867188 -8.679688 5.8125 -8.628906 5.75 -8.578125 C 5.71875 -8.535156 5.671875 -8.503906 5.609375 -8.484375 C 5.554688 -8.472656 5.5 -8.46875 5.4375 -8.46875 C 4.863281 -8.445312 4.367188 -8.273438 3.953125 -7.953125 C 3.535156 -7.640625 3.15625 -7.28125 2.8125 -6.875 C 2.425781 -6.445312 2.066406 -5.972656 1.734375 -5.453125 C 1.410156 -4.941406 1.144531 -4.328125 0.9375 -3.609375 C 1.707031 -4.046875 2.3125 -4.484375 2.75 -4.921875 C 2.84375 -5.023438 2.9375 -5.113281 3.03125 -5.1875 C 3.113281 -5.269531 3.191406 -5.34375 3.265625 -5.40625 C 3.660156 -5.757812 4.066406 -6.070312 4.484375 -6.34375 C 4.960938 -6.613281 5.4375 -6.75 5.90625 -6.75 C 6.382812 -6.75 6.847656 -6.554688 7.296875 -6.171875 C 7.910156 -5.628906 8.503906 -5.414062 9.078125 -5.53125 C 9.660156 -5.65625 10.203125 -5.863281 10.703125 -6.15625 C 11.210938 -6.457031 11.660156 -6.609375 12.046875 -6.609375 Z M 12.046875 -6.609375 "/></g></g></g><g fill="#444242" fill-opacity="1"><g transform="translate(129.066175, 72.400973)"><g><path d="M 0.863281 -16.167969 L 0.863281 -15.84375 L 1.230469 -15.84375 C 1.875 -15.84375 2.371094 -15.605469 2.757812 -15.132812 C 3.148438 -14.65625 3.339844 -14.03125 3.339844 -13.257812 L 3.339844 -2.910156 C 3.339844 -2.132812 3.148438 -1.507812 2.757812 -1.035156 C 2.371094 -0.558594 1.875 -0.324219 1.230469 -0.324219 L 0.863281 -0.324219 L 0.863281 0 L 7.976562 0 L 7.976562 -0.324219 L 7.609375 -0.324219 C 6.960938 -0.324219 6.445312 -0.558594 6.058594 -1.035156 C 5.667969 -1.507812 5.496094 -2.132812 5.496094 -2.910156 L 5.496094 -8.300781 L 7.027344 -8.300781 C 7.867188 -8.300781 8.578125 -8.039062 9.183594 -7.566406 C 9.765625 -7.09375 10.132812 -6.445312 10.28125 -5.648438 L 10.367188 -5.171875 L 10.691406 -5.171875 L 10.691406 -11.574219 L 10.367188 -11.574219 L 10.28125 -11.101562 C 10.132812 -10.28125 9.765625 -9.636719 9.183594 -9.160156 C 8.578125 -8.6875 7.867188 -8.449219 7.027344 -8.449219 L 5.496094 -8.449219 L 5.496094 -16.058594 L 8.535156 -16.058594 C 9.375 -16.058594 10.132812 -15.800781 10.777344 -15.328125 C 11.425781 -14.851562 11.855469 -14.207031 12.113281 -13.40625 L 12.265625 -12.933594 L 12.589844 -12.933594 C 12.523438 -13.40625 12.460938 -13.925781 12.394531 -14.527344 C 12.328125 -15.109375 12.265625 -15.648438 12.222656 -16.125 L 12.179688 -16.125 L 12.179688 -16.167969 Z M 0.863281 -16.167969 "/></g></g></g><g fill="#444242" fill-opacity="1"><g transform="translate(142.902931, 72.400973)"><g><path d="M 7.4375 0 L 7.4375 -0.324219 L 7.136719 -0.324219 C 6.597656 -0.324219 6.164062 -0.515625 5.863281 -0.90625 C 5.539062 -1.292969 5.390625 -1.832031 5.390625 -2.480469 L 5.390625 -13.6875 C 5.390625 -14.335938 5.539062 -14.851562 5.863281 -15.238281 C 6.164062 -15.628906 6.597656 -15.84375 7.136719 -15.84375 L 7.4375 -15.84375 L 7.4375 -16.167969 L 1.1875 -16.167969 L 1.1875 -15.84375 L 1.488281 -15.84375 C 2.003906 -15.84375 2.4375 -15.628906 2.757812 -15.238281 C 3.0625 -14.851562 3.234375 -14.335938 3.234375 -13.6875 L 3.234375 -2.480469 C 3.234375 -1.832031 3.0625 -1.292969 2.757812 -0.90625 C 2.4375 -0.515625 2.003906 -0.324219 1.488281 -0.324219 L 1.1875 -0.324219 L 1.1875 0 Z M 7.4375 0 "/></g></g></g><g fill="#444242" fill-opacity="1"><g transform="translate(151.631727, 72.400973)"><g><path d="M -0.257812 -16.167969 L -0.257812 -15.84375 L 0.0429688 -15.84375 C 0.539062 -15.84375 1.078125 -15.648438 1.660156 -15.304688 C 2.21875 -14.960938 2.738281 -14.484375 3.210938 -13.925781 L 3.191406 -2.480469 C 3.191406 -1.832031 3.019531 -1.292969 2.695312 -0.90625 C 2.371094 -0.515625 1.960938 -0.324219 1.445312 -0.324219 L 1.140625 -0.324219 L 1.140625 0 L 5.90625 0 L 5.90625 -0.324219 L 5.605469 -0.324219 C 5.085938 -0.324219 4.675781 -0.496094 4.375 -0.839844 C 4.050781 -1.1875 3.878906 -1.636719 3.835938 -2.21875 L 3.773438 -13.148438 C 5.367188 -10.949219 6.984375 -8.75 8.601562 -6.574219 C 10.195312 -4.398438 11.8125 -2.199219 13.429688 0 L 13.859375 0 C 13.882812 -2.285156 13.902344 -4.570312 13.925781 -6.855469 C 13.945312 -9.117188 13.96875 -11.402344 14.011719 -13.6875 C 14.011719 -14.335938 14.183594 -14.851562 14.507812 -15.238281 C 14.808594 -15.628906 15.238281 -15.84375 15.777344 -15.84375 L 16.082031 -15.84375 L 16.082031 -16.167969 L 11.316406 -16.167969 L 11.316406 -15.84375 L 11.617188 -15.84375 C 12.136719 -15.84375 12.566406 -15.628906 12.890625 -15.238281 C 13.191406 -14.851562 13.363281 -14.335938 13.363281 -13.6875 L 13.40625 -3.664062 C 11.878906 -5.777344 10.347656 -7.847656 8.839844 -9.914062 C 7.308594 -11.984375 5.777344 -14.054688 4.246094 -16.167969 Z M -0.257812 -16.167969 "/></g></g></g><g fill="#444242" fill-opacity="1"><g transform="translate(169.003107, 72.400973)"><g><path d="M 7.027344 -0.128906 C 6.683594 -0.128906 6.402344 -0.214844 6.207031 -0.386719 C 5.992188 -0.558594 5.839844 -0.820312 5.734375 -1.164062 C 5.625 -1.507812 5.5625 -1.898438 5.539062 -2.371094 C 5.496094 -2.84375 5.496094 -3.363281 5.496094 -3.945312 L 5.496094 -16.039062 L 7.542969 -16.039062 C 8.773438 -16.039062 9.851562 -15.84375 10.800781 -15.457031 C 11.726562 -15.066406 12.503906 -14.527344 13.128906 -13.839844 C 13.753906 -13.148438 14.226562 -12.308594 14.550781 -11.339844 C 14.851562 -10.347656 15.023438 -9.269531 15.023438 -8.082031 C 15.023438 -6.746094 14.832031 -5.605469 14.441406 -4.613281 C 14.054688 -3.621094 13.515625 -2.78125 12.824219 -2.132812 C 12.113281 -1.464844 11.273438 -0.96875 10.304688 -0.625 C 9.3125 -0.28125 8.234375 -0.128906 7.027344 -0.128906 Z M 1.292969 -16.167969 L 1.292969 -15.84375 L 1.59375 -15.84375 C 2.113281 -15.84375 2.542969 -15.628906 2.867188 -15.238281 C 3.167969 -14.851562 3.339844 -14.335938 3.339844 -13.6875 L 3.339844 -2.480469 C 3.339844 -1.832031 3.167969 -1.292969 2.867188 -0.90625 C 2.542969 -0.515625 2.113281 -0.324219 1.59375 -0.324219 L 1.292969 -0.324219 L 1.292969 0 L 7.222656 0 C 8.730469 0 10.132812 -0.171875 11.382812 -0.515625 C 12.632812 -0.863281 13.710938 -1.359375 14.613281 -2.046875 C 15.5 -2.714844 16.1875 -3.558594 16.683594 -4.570312 C 17.160156 -5.5625 17.417969 -6.746094 17.417969 -8.082031 C 17.417969 -9.289062 17.203125 -10.390625 16.8125 -11.382812 C 16.425781 -12.375 15.820312 -13.234375 15.046875 -13.945312 C 14.269531 -14.636719 13.300781 -15.195312 12.136719 -15.585938 C 10.972656 -15.972656 9.613281 -16.167969 8.082031 -16.167969 Z M 1.292969 -16.167969 "/></g></g></g><g fill="#444242" fill-opacity="1"><g transform="translate(187.602984, 72.400973)"><g><path d="M 1.507812 -5.390625 L 1.078125 -5.390625 L 1.078125 0.214844 L 1.378906 0.214844 L 1.464844 -0.367188 C 1.507812 -0.667969 1.722656 -0.820312 2.15625 -0.820312 C 2.585938 -0.820312 3.125 -0.667969 3.792969 -0.386719 C 3.988281 -0.28125 4.183594 -0.195312 4.398438 -0.109375 C 4.613281 -0.0234375 4.808594 0.0664062 5.023438 0.128906 C 5.195312 0.171875 5.410156 0.214844 5.625 0.214844 C 5.839844 0.214844 6.078125 0.214844 6.292969 0.214844 C 6.984375 0.214844 7.628906 0.128906 8.210938 -0.0859375 C 8.792969 -0.300781 9.289062 -0.605469 9.699219 -0.992188 C 10.109375 -1.378906 10.433594 -1.832031 10.671875 -2.394531 C 10.886719 -2.929688 11.015625 -3.535156 11.015625 -4.226562 C 11.015625 -5.257812 10.671875 -6.230469 9.980469 -7.136719 C 9.289062 -8.019531 8.277344 -8.707031 6.941406 -9.203125 C 5.648438 -9.65625 4.699219 -10.21875 4.050781 -10.886719 C 3.40625 -11.554688 3.082031 -12.242188 3.082031 -12.957031 C 3.082031 -14.011719 3.320312 -14.832031 3.816406 -15.433594 C 4.3125 -16.015625 5 -16.273438 5.886719 -16.1875 C 6.273438 -16.144531 6.660156 -16.015625 7.046875 -15.820312 C 7.4375 -15.605469 7.78125 -15.347656 8.105469 -15.023438 C 8.40625 -14.679688 8.6875 -14.292969 8.945312 -13.839844 C 9.183594 -13.363281 9.375 -12.867188 9.527344 -12.351562 L 9.722656 -11.640625 L 10.152344 -11.640625 L 10.152344 -16.46875 L 9.851562 -16.46875 L 9.765625 -16.039062 C 9.722656 -15.820312 9.484375 -15.691406 9.097656 -15.691406 C 8.6875 -15.671875 8.210938 -15.757812 7.675781 -15.972656 C 7.09375 -16.273438 6.488281 -16.46875 5.886719 -16.535156 C 5.195312 -16.535156 4.589844 -16.425781 4.03125 -16.210938 C 3.46875 -15.996094 2.996094 -15.714844 2.609375 -15.328125 C 2.21875 -14.9375 1.917969 -14.484375 1.703125 -13.945312 C 1.488281 -13.386719 1.378906 -12.78125 1.378906 -12.136719 C 1.378906 -11.035156 1.722656 -10.023438 2.4375 -9.117188 C 3.148438 -8.191406 4.226562 -7.480469 5.648438 -6.960938 C 6.855469 -6.511719 7.78125 -5.992188 8.386719 -5.410156 C 8.988281 -4.808594 9.289062 -4.203125 9.289062 -3.601562 C 9.289062 -2.953125 9.183594 -2.371094 8.96875 -1.855469 C 8.75 -1.335938 8.472656 -0.925781 8.105469 -0.625 C 7.71875 -0.324219 7.285156 -0.109375 6.789062 -0.0234375 C 6.273438 0.0664062 5.734375 0.0234375 5.128906 -0.195312 C 4.742188 -0.324219 4.375 -0.515625 4.03125 -0.796875 C 3.6875 -1.054688 3.363281 -1.402344 3.0625 -1.789062 C 2.757812 -2.175781 2.480469 -2.628906 2.261719 -3.125 C 2.027344 -3.601562 1.832031 -4.117188 1.703125 -4.675781 Z M 1.507812 -5.390625 "/></g></g></g></svg>