<svg xmlns="http://www.w3.org/2000/svg" xmlns:xlink="http://www.w3.org/1999/xlink" width="500" zoomAndPan="magnify" viewBox="0 0 375 374.999991" height="500" preserveAspectRatio="xMidYMid meet" version="1.0"><defs><clipPath id="ac67795822"><path d="M 14.964844 14.964844 L 359.964844 14.964844 L 359.964844 359.964844 L 14.964844 359.964844 Z M 14.964844 14.964844 " clip-rule="nonzero"/></clipPath><clipPath id="f79c8f47e1"><path d="M 84 79.113281 L 291 79.113281 L 291 295.863281 L 84 295.863281 Z M 84 79.113281 " clip-rule="nonzero"/></clipPath></defs><g clip-path="url(#ac67795822)"><path fill="#f0b47d" d="M 359.964844 187.464844 C 359.964844 190.285156 359.894531 193.109375 359.757812 195.929688 C 359.617188 198.746094 359.410156 201.5625 359.132812 204.371094 C 358.855469 207.179688 358.511719 209.980469 358.097656 212.773438 C 357.683594 215.566406 357.199219 218.347656 356.648438 221.117188 C 356.097656 223.886719 355.480469 226.640625 354.792969 229.378906 C 354.109375 232.117188 353.355469 234.835938 352.535156 237.539062 C 351.714844 240.238281 350.832031 242.917969 349.878906 245.578125 C 348.929688 248.234375 347.914062 250.867188 346.832031 253.476562 C 345.753906 256.085938 344.609375 258.664062 343.402344 261.21875 C 342.195312 263.769531 340.925781 266.289062 339.59375 268.78125 C 338.265625 271.269531 336.875 273.726562 335.421875 276.148438 C 333.972656 278.566406 332.460938 280.953125 330.890625 283.300781 C 329.324219 285.648438 327.699219 287.953125 326.015625 290.222656 C 324.335938 292.488281 322.597656 294.714844 320.808594 296.898438 C 319.015625 299.078125 317.175781 301.214844 315.277344 303.308594 C 313.382812 305.398438 311.4375 307.445312 309.441406 309.441406 C 307.445312 311.4375 305.398438 313.382812 303.308594 315.277344 C 301.214844 317.175781 299.078125 319.015625 296.898438 320.808594 C 294.714844 322.597656 292.488281 324.335938 290.222656 326.015625 C 287.953125 327.699219 285.648438 329.324219 283.300781 330.890625 C 280.953125 332.460938 278.566406 333.96875 276.148438 335.421875 C 273.726562 336.875 271.269531 338.265625 268.78125 339.59375 C 266.289062 340.925781 263.769531 342.195312 261.21875 343.402344 C 258.664062 344.609375 256.085938 345.753906 253.476562 346.832031 C 250.867188 347.914062 248.234375 348.929688 245.578125 349.878906 C 242.917969 350.832031 240.238281 351.714844 237.539062 352.535156 C 234.835938 353.355469 232.117188 354.109375 229.378906 354.792969 C 226.640625 355.480469 223.886719 356.097656 221.117188 356.648438 C 218.347656 357.199219 215.566406 357.683594 212.773438 358.097656 C 209.980469 358.511719 207.179688 358.855469 204.371094 359.132812 C 201.5625 359.410156 198.746094 359.617188 195.929688 359.757812 C 193.109375 359.894531 190.285156 359.964844 187.464844 359.964844 C 184.640625 359.964844 181.820312 359.894531 179 359.757812 C 176.179688 359.617188 173.367188 359.410156 170.554688 359.132812 C 167.746094 358.855469 164.945312 358.511719 162.152344 358.097656 C 159.359375 357.683594 156.578125 357.199219 153.8125 356.648438 C 151.042969 356.097656 148.289062 355.480469 145.550781 354.792969 C 142.8125 354.109375 140.089844 353.355469 137.390625 352.535156 C 134.6875 351.714844 132.007812 350.832031 129.351562 349.878906 C 126.691406 348.929688 124.058594 347.914062 121.449219 346.832031 C 118.84375 345.753906 116.261719 344.609375 113.710938 343.402344 C 111.160156 342.195312 108.636719 340.925781 106.148438 339.59375 C 103.660156 338.265625 101.203125 336.875 98.78125 335.421875 C 96.359375 333.96875 93.976562 332.460938 91.628906 330.890625 C 89.28125 329.324219 86.972656 327.699219 84.707031 326.015625 C 82.4375 324.335938 80.214844 322.597656 78.03125 320.808594 C 75.847656 319.015625 73.710938 317.175781 71.621094 315.277344 C 69.527344 313.382812 67.484375 311.4375 65.488281 309.441406 C 63.492188 307.445312 61.546875 305.398438 59.648438 303.308594 C 57.753906 301.214844 55.910156 299.078125 54.121094 296.898438 C 52.328125 294.714844 50.59375 292.488281 48.910156 290.222656 C 47.230469 287.953125 45.605469 285.648438 44.035156 283.300781 C 42.46875 280.953125 40.957031 278.566406 39.503906 276.148438 C 38.054688 273.726562 36.664062 271.269531 35.332031 268.78125 C 34 266.289062 32.734375 263.769531 31.527344 261.21875 C 30.320312 258.664062 29.175781 256.085938 28.09375 253.476562 C 27.015625 250.867188 26 248.234375 25.046875 245.578125 C 24.097656 242.917969 23.210938 240.238281 22.390625 237.539062 C 21.570312 234.835938 20.820312 232.117188 20.132812 229.378906 C 19.449219 226.640625 18.828125 223.886719 18.277344 221.117188 C 17.726562 218.347656 17.246094 215.566406 16.832031 212.773438 C 16.417969 209.980469 16.070312 207.179688 15.792969 204.371094 C 15.519531 201.5625 15.308594 198.746094 15.171875 195.929688 C 15.03125 193.109375 14.964844 190.285156 14.964844 187.464844 C 14.964844 184.640625 15.03125 181.820312 15.171875 179 C 15.308594 176.179688 15.519531 173.367188 15.792969 170.554688 C 16.070312 167.746094 16.417969 164.945312 16.832031 162.152344 C 17.246094 159.359375 17.726562 156.578125 18.277344 153.8125 C 18.828125 151.042969 19.449219 148.289062 20.132812 145.550781 C 20.820312 142.8125 21.570312 140.089844 22.390625 137.390625 C 23.210938 134.6875 24.097656 132.007812 25.046875 129.351562 C 26 126.691406 27.015625 124.058594 28.09375 121.449219 C 29.175781 118.84375 30.320312 116.261719 31.527344 113.710938 C 32.734375 111.160156 34 108.636719 35.332031 106.148438 C 36.664062 103.660156 38.054688 101.203125 39.503906 98.78125 C 40.957031 96.359375 42.46875 93.976562 44.035156 91.628906 C 45.605469 89.28125 47.230469 86.972656 48.910156 84.707031 C 50.59375 82.4375 52.328125 80.214844 54.121094 78.03125 C 55.910156 75.847656 57.753906 73.710938 59.648438 71.621094 C 61.546875 69.527344 63.492188 67.484375 65.488281 65.488281 C 67.484375 63.492188 69.527344 61.546875 71.621094 59.648438 C 73.710938 57.753906 75.847656 55.910156 78.03125 54.121094 C 80.214844 52.328125 82.4375 50.59375 84.707031 48.910156 C 86.972656 47.230469 89.28125 45.605469 91.628906 44.035156 C 93.976562 42.46875 96.359375 40.957031 98.78125 39.503906 C 101.203125 38.054688 103.660156 36.664062 106.148438 35.332031 C 108.636719 34 111.160156 32.734375 113.710938 31.527344 C 116.261719 30.320312 118.84375 29.175781 121.449219 28.09375 C 124.058594 27.015625 126.691406 26 129.351562 25.046875 C 132.007812 24.097656 134.6875 23.210938 137.390625 22.390625 C 140.089844 21.570312 142.8125 20.820312 145.550781 20.132812 C 148.289062 19.449219 151.042969 18.828125 153.8125 18.277344 C 156.578125 17.726562 159.359375 17.246094 162.152344 16.832031 C 164.945312 16.417969 167.746094 16.070312 170.554688 15.792969 C 173.367188 15.519531 176.179688 15.308594 179 15.171875 C 181.820312 15.035156 184.640625 14.964844 187.464844 14.964844 C 190.285156 14.964844 193.109375 15.035156 195.929688 15.171875 C 198.746094 15.308594 201.5625 15.519531 204.371094 15.792969 C 207.179688 16.070312 209.980469 16.417969 212.773438 16.832031 C 215.566406 17.246094 218.347656 17.726562 221.117188 18.277344 C 223.886719 18.828125 226.640625 19.449219 229.378906 20.132812 C 232.117188 20.820312 234.835938 21.570312 237.539062 22.390625 C 240.238281 23.210938 242.917969 24.097656 245.578125 25.046875 C 248.234375 26 250.867188 27.015625 253.476562 28.09375 C 256.085938 29.175781 258.664062 30.320312 261.21875 31.527344 C 263.769531 32.734375 266.289062 34 268.78125 35.332031 C 271.269531 36.664062 273.726562 38.054688 276.148438 39.503906 C 278.566406 40.957031 280.953125 42.46875 283.300781 44.035156 C 285.648438 45.605469 287.953125 47.230469 290.222656 48.910156 C 292.488281 50.59375 294.714844 52.328125 296.898438 54.121094 C 299.078125 55.910156 301.214844 57.753906 303.308594 59.648438 C 305.398438 61.546875 307.445312 63.492188 309.441406 65.488281 C 311.4375 67.484375 313.382812 69.527344 315.277344 71.621094 C 317.175781 73.710938 319.015625 75.847656 320.808594 78.03125 C 322.597656 80.214844 324.335938 82.4375 326.015625 84.707031 C 327.699219 86.972656 329.324219 89.28125 330.890625 91.628906 C 332.460938 93.976562 333.972656 96.359375 335.421875 98.78125 C 336.875 101.203125 338.265625 103.660156 339.59375 106.148438 C 340.925781 108.636719 342.195312 111.160156 343.402344 113.710938 C 344.609375 116.261719 345.753906 118.84375 346.832031 121.449219 C 347.914062 124.058594 348.929688 126.691406 349.878906 129.351562 C 350.832031 132.007812 351.714844 134.6875 352.535156 137.390625 C 353.355469 140.089844 354.109375 142.8125 354.792969 145.550781 C 355.480469 148.289062 356.097656 151.042969 356.648438 153.8125 C 357.199219 156.578125 357.683594 159.359375 358.097656 162.152344 C 358.511719 164.945312 358.855469 167.746094 359.132812 170.554688 C 359.410156 173.367188 359.617188 176.179688 359.757812 179 C 359.894531 181.820312 359.964844 184.640625 359.964844 187.464844 Z M 359.964844 187.464844 " fill-opacity="1" fill-rule="nonzero"/></g><g clip-path="url(#f79c8f47e1)"><path fill="#ffffff" d="M 289.957031 257.144531 L 279.945312 204.363281 L 279.945312 174.9375 C 279.945312 174.304688 279.914062 173.675781 279.855469 173.042969 C 279.792969 172.414062 279.699219 171.789062 279.578125 171.171875 C 279.453125 170.550781 279.300781 169.9375 279.117188 169.332031 C 278.9375 168.726562 278.722656 168.132812 278.484375 167.546875 C 278.242188 166.960938 277.972656 166.390625 277.675781 165.832031 C 277.378906 165.273438 277.054688 164.730469 276.703125 164.203125 C 276.355469 163.679688 275.980469 163.167969 275.578125 162.679688 C 275.179688 162.191406 274.757812 161.71875 274.3125 161.269531 C 273.867188 160.824219 273.398438 160.398438 272.910156 159.992188 C 272.425781 159.589844 271.917969 159.210938 271.394531 158.859375 C 270.867188 158.503906 270.328125 158.175781 269.773438 157.875 C 269.214844 157.574219 268.644531 157.304688 268.0625 157.058594 C 267.480469 156.8125 266.882812 156.597656 266.28125 156.410156 C 265.675781 156.222656 265.0625 156.066406 264.445312 155.9375 C 263.824219 155.8125 263.199219 155.714844 262.570312 155.648438 C 261.941406 155.582031 261.308594 155.546875 260.675781 155.542969 L 260.675781 149.03125 C 260.648438 148.359375 260.5625 147.699219 260.425781 147.042969 C 260.285156 146.386719 260.09375 145.746094 259.851562 145.121094 C 259.605469 144.5 259.3125 143.898438 258.96875 143.324219 C 258.628906 142.746094 258.238281 142.203125 257.808594 141.6875 C 257.375 141.175781 256.90625 140.703125 256.394531 140.265625 C 255.886719 139.832031 255.34375 139.441406 254.769531 139.09375 C 254.195312 138.75 253.597656 138.449219 252.972656 138.203125 C 252.351562 137.953125 251.710938 137.757812 251.054688 137.617188 C 250.398438 137.445312 249.734375 137.316406 249.058594 137.226562 C 248.941406 135.292969 248.734375 133.367188 248.433594 131.453125 C 248.132812 129.539062 247.746094 127.644531 247.265625 125.765625 C 246.785156 123.886719 246.21875 122.035156 245.566406 120.210938 C 244.910156 118.386719 244.171875 116.597656 243.347656 114.84375 C 242.527344 113.089844 241.621094 111.375 240.636719 109.707031 C 239.652344 108.039062 238.589844 106.417969 237.453125 104.851562 C 236.3125 103.28125 235.105469 101.769531 233.824219 100.3125 C 232.542969 98.859375 231.195312 97.46875 229.78125 96.140625 C 228.371094 94.8125 226.898438 93.554688 225.367188 92.367188 C 223.835938 91.175781 222.25 90.0625 220.613281 89.023438 C 218.976562 87.984375 217.292969 87.023438 215.566406 86.144531 C 213.839844 85.265625 212.074219 84.46875 210.269531 83.753906 C 208.46875 83.039062 206.636719 82.414062 204.773438 81.871094 C 202.910156 81.332031 201.027344 80.878906 199.121094 80.515625 C 197.21875 80.15625 195.300781 79.882812 193.367188 79.699219 C 191.4375 79.519531 189.503906 79.429688 187.5625 79.429688 C 185.625 79.433594 183.691406 79.53125 181.761719 79.714844 C 179.832031 79.902344 177.914062 80.179688 176.011719 80.546875 C 174.109375 80.914062 172.226562 81.367188 170.367188 81.910156 C 168.503906 82.453125 166.675781 83.082031 164.875 83.800781 C 163.070312 84.515625 161.308594 85.3125 159.582031 86.195312 C 157.855469 87.074219 156.175781 88.035156 154.539062 89.074219 C 152.902344 90.113281 151.320312 91.230469 149.789062 92.417969 C 148.257812 93.605469 146.785156 94.863281 145.375 96.1875 C 143.960938 97.515625 142.613281 98.90625 141.332031 100.359375 C 140.050781 101.8125 138.839844 103.320312 137.699219 104.886719 C 136.558594 106.457031 135.496094 108.074219 134.507812 109.738281 C 133.519531 111.40625 132.613281 113.117188 131.785156 114.867188 C 130.960938 116.621094 130.21875 118.40625 129.558594 120.230469 C 128.902344 122.050781 128.328125 123.898438 127.84375 125.777344 C 127.359375 127.652344 126.964844 129.546875 126.660156 131.457031 C 126.351562 133.371094 126.136719 135.292969 126.011719 137.226562 C 125.347656 137.316406 124.691406 137.445312 124.042969 137.617188 C 123.390625 137.761719 122.75 137.957031 122.128906 138.207031 C 121.507812 138.457031 120.910156 138.753906 120.339844 139.101562 C 119.765625 139.449219 119.226562 139.839844 118.71875 140.273438 C 118.207031 140.710938 117.738281 141.183594 117.308594 141.695312 C 116.878906 142.207031 116.492188 142.753906 116.148438 143.328125 C 115.808594 143.90625 115.515625 144.503906 115.273438 145.128906 C 115.03125 145.75 114.839844 146.390625 114.703125 147.046875 C 114.5625 147.699219 114.480469 148.363281 114.449219 149.03125 L 114.449219 155.570312 C 113.816406 155.574219 113.1875 155.609375 112.558594 155.675781 C 111.925781 155.742188 111.304688 155.839844 110.683594 155.964844 C 110.0625 156.09375 109.453125 156.25 108.847656 156.4375 C 108.242188 156.625 107.648438 156.839844 107.066406 157.085938 C 106.480469 157.332031 105.910156 157.605469 105.355469 157.90625 C 104.800781 158.207031 104.257812 158.53125 103.734375 158.886719 C 103.210938 159.238281 102.703125 159.617188 102.214844 160.019531 C 101.726562 160.425781 101.261719 160.851562 100.816406 161.300781 C 100.371094 161.746094 99.945312 162.21875 99.546875 162.707031 C 99.148438 163.199219 98.773438 163.707031 98.421875 164.234375 C 98.070312 164.757812 97.75 165.300781 97.453125 165.859375 C 97.15625 166.417969 96.886719 166.988281 96.644531 167.574219 C 96.402344 168.160156 96.191406 168.753906 96.007812 169.359375 C 95.824219 169.964844 95.671875 170.578125 95.550781 171.199219 C 95.425781 171.816406 95.335938 172.441406 95.273438 173.074219 C 95.210938 173.703125 95.179688 174.332031 95.179688 174.964844 L 95.179688 204.363281 L 85.171875 257.144531 C 84.945312 258.308594 84.785156 259.484375 84.691406 260.664062 C 84.59375 261.847656 84.5625 263.03125 84.597656 264.214844 C 84.632812 265.402344 84.734375 266.582031 84.898438 267.757812 C 85.0625 268.929688 85.292969 270.09375 85.585938 271.242188 C 85.878906 272.390625 86.234375 273.519531 86.652344 274.628906 C 87.070312 275.742188 87.546875 276.824219 88.085938 277.882812 C 88.621094 278.9375 89.214844 279.964844 89.867188 280.957031 C 90.515625 281.949219 91.21875 282.902344 91.972656 283.816406 C 92.730469 284.730469 93.535156 285.601562 94.386719 286.425781 C 95.234375 287.253906 96.128906 288.03125 97.066406 288.757812 C 98.003906 289.484375 98.980469 290.160156 99.992188 290.78125 C 101.003906 291.398438 102.042969 291.964844 103.117188 292.46875 C 104.191406 292.972656 105.289062 293.417969 106.414062 293.804688 C 107.535156 294.1875 108.675781 294.511719 109.832031 294.769531 C 110.992188 295.027344 112.160156 295.222656 113.339844 295.351562 C 114.519531 295.484375 115.703125 295.546875 116.890625 295.546875 L 258.292969 295.546875 C 259.476562 295.546875 260.660156 295.480469 261.839844 295.347656 C 263.015625 295.214844 264.183594 295.019531 265.339844 294.757812 C 266.496094 294.496094 267.636719 294.175781 268.757812 293.789062 C 269.878906 293.402344 270.976562 292.957031 272.046875 292.449219 C 273.117188 291.945312 274.160156 291.382812 275.167969 290.761719 C 276.179688 290.140625 277.152344 289.464844 278.085938 288.738281 C 279.023438 288.007812 279.914062 287.230469 280.765625 286.40625 C 281.613281 285.578125 282.417969 284.710938 283.171875 283.792969 C 283.925781 282.878906 284.625 281.925781 285.273438 280.9375 C 285.921875 279.945312 286.515625 278.921875 287.050781 277.863281 C 287.589844 276.804688 288.066406 275.722656 288.480469 274.613281 C 288.898438 273.503906 289.253906 272.375 289.546875 271.226562 C 289.835938 270.078125 290.066406 268.917969 290.230469 267.746094 C 290.394531 266.574219 290.496094 265.394531 290.527344 264.210938 C 290.5625 263.023438 290.53125 261.84375 290.4375 260.660156 C 290.339844 259.480469 290.179688 258.308594 289.957031 257.144531 Z M 252.359375 149.085938 L 252.359375 155.625 L 222.222656 155.625 L 222.222656 149.03125 C 222.222656 147.285156 224.496094 145.34375 227.765625 145.34375 L 246.84375 145.34375 C 247.527344 145.351562 248.203125 145.441406 248.867188 145.621094 C 250.945312 146.203125 252.386719 147.589844 252.386719 149.03125 Z M 161.222656 155.570312 L 161.222656 149.03125 C 161.179688 148.34375 161.082031 147.664062 160.925781 146.996094 C 160.769531 146.324219 160.558594 145.671875 160.292969 145.039062 C 160.027344 144.402344 159.710938 143.792969 159.347656 143.210938 C 158.980469 142.628906 158.566406 142.082031 158.109375 141.566406 C 157.652344 141.054688 157.152344 140.582031 156.617188 140.148438 C 156.078125 139.71875 155.511719 139.335938 154.910156 139 C 154.308594 138.664062 153.683594 138.378906 153.035156 138.144531 C 152.390625 137.914062 151.726562 137.738281 151.046875 137.617188 C 151.15625 136.492188 151.316406 135.378906 151.523438 134.269531 C 151.734375 133.160156 151.996094 132.066406 152.308594 130.980469 C 152.621094 129.898438 152.980469 128.832031 153.390625 127.78125 C 153.800781 126.730469 154.257812 125.699219 154.761719 124.691406 C 155.269531 123.683594 155.820312 122.699219 156.414062 121.742188 C 157.011719 120.785156 157.648438 119.859375 158.332031 118.960938 C 159.011719 118.058594 159.734375 117.195312 160.496094 116.363281 C 161.257812 115.53125 162.054688 114.734375 162.890625 113.976562 C 163.726562 113.21875 164.59375 112.5 165.496094 111.820312 C 166.394531 111.144531 167.328125 110.507812 168.285156 109.914062 C 169.246094 109.324219 170.230469 108.777344 171.242188 108.273438 C 172.253906 107.773438 173.285156 107.316406 174.335938 106.910156 C 175.390625 106.503906 176.457031 106.148438 177.542969 105.839844 C 178.628906 105.53125 179.726562 105.273438 180.835938 105.066406 C 181.945312 104.859375 183.0625 104.707031 184.1875 104.601562 C 185.308594 104.496094 186.433594 104.445312 187.5625 104.445312 C 188.691406 104.445312 189.816406 104.496094 190.941406 104.601562 C 192.066406 104.707031 193.179688 104.859375 194.289062 105.066406 C 195.398438 105.273438 196.496094 105.53125 197.582031 105.839844 C 198.667969 106.148438 199.738281 106.503906 200.789062 106.910156 C 201.84375 107.316406 202.875 107.773438 203.882812 108.273438 C 204.894531 108.777344 205.878906 109.324219 206.839844 109.914062 C 207.800781 110.507812 208.730469 111.144531 209.632812 111.820312 C 210.535156 112.5 211.402344 113.21875 212.238281 113.976562 C 213.070312 114.734375 213.871094 115.53125 214.632812 116.363281 C 215.394531 117.195312 216.113281 118.058594 216.796875 118.960938 C 217.476562 119.859375 218.117188 120.785156 218.710938 121.742188 C 219.308594 122.699219 219.859375 123.683594 220.363281 124.691406 C 220.871094 125.699219 221.328125 126.730469 221.738281 127.78125 C 222.148438 128.832031 222.507812 129.898438 222.820312 130.980469 C 223.132812 132.066406 223.390625 133.160156 223.601562 134.269531 C 223.8125 135.378906 223.972656 136.492188 224.078125 137.617188 C 223.398438 137.738281 222.730469 137.917969 222.082031 138.152344 C 221.429688 138.382812 220.804688 138.671875 220.199219 139.011719 C 219.597656 139.347656 219.027344 139.734375 218.488281 140.171875 C 217.949219 140.605469 217.453125 141.082031 216.992188 141.597656 C 216.535156 142.117188 216.125 142.667969 215.757812 143.257812 C 215.390625 143.84375 215.078125 144.457031 214.8125 145.097656 C 214.550781 145.734375 214.34375 146.390625 214.191406 147.066406 C 214.039062 147.742188 213.941406 148.421875 213.902344 149.113281 L 213.902344 155.652344 Z M 187.5625 87.742188 C 189.207031 87.742188 190.851562 87.820312 192.488281 87.972656 C 194.128906 88.125 195.753906 88.351562 197.371094 88.652344 C 198.988281 88.957031 200.589844 89.332031 202.171875 89.785156 C 203.753906 90.234375 205.3125 90.757812 206.847656 91.351562 C 208.378906 91.945312 209.882812 92.609375 211.355469 93.339844 C 212.828125 94.074219 214.265625 94.875 215.664062 95.742188 C 217.0625 96.605469 218.417969 97.535156 219.730469 98.527344 C 221.042969 99.515625 222.308594 100.566406 223.523438 101.675781 C 224.738281 102.78125 225.902344 103.941406 227.007812 105.160156 C 228.117188 106.375 229.167969 107.636719 230.160156 108.949219 C 231.148438 110.261719 232.078125 111.617188 232.945312 113.015625 C 233.8125 114.414062 234.609375 115.847656 235.34375 117.320312 C 236.078125 118.789062 236.742188 120.292969 237.335938 121.828125 C 237.929688 123.359375 238.453125 124.917969 238.902344 126.5 C 239.355469 128.078125 239.730469 129.679688 240.03125 131.292969 C 240.335938 132.910156 240.5625 134.539062 240.714844 136.175781 L 232.398438 136.175781 C 232.25 134.808594 232.039062 133.457031 231.765625 132.109375 C 231.492188 130.765625 231.160156 129.4375 230.765625 128.121094 C 230.371094 126.808594 229.917969 125.515625 229.40625 124.242188 C 228.894531 122.96875 228.324219 121.722656 227.699219 120.5 C 227.070312 119.28125 226.390625 118.089844 225.65625 116.933594 C 224.921875 115.773438 224.132812 114.652344 223.296875 113.5625 C 222.457031 112.476562 221.570312 111.429688 220.636719 110.425781 C 219.703125 109.417969 218.726562 108.457031 217.703125 107.542969 C 216.679688 106.625 215.621094 105.757812 214.519531 104.9375 C 213.417969 104.121094 212.28125 103.351562 211.109375 102.636719 C 209.9375 101.921875 208.734375 101.261719 207.503906 100.65625 C 206.273438 100.050781 205.015625 99.503906 203.730469 99.011719 C 202.449219 98.523438 201.148438 98.089844 199.828125 97.71875 C 198.503906 97.347656 197.167969 97.035156 195.820312 96.789062 C 194.46875 96.539062 193.109375 96.351562 191.742188 96.226562 C 190.375 96.101562 189.003906 96.039062 187.632812 96.039062 C 186.261719 96.039062 184.890625 96.101562 183.523438 96.226562 C 182.15625 96.351562 180.796875 96.539062 179.445312 96.789062 C 178.097656 97.035156 176.761719 97.347656 175.4375 97.71875 C 174.117188 98.089844 172.816406 98.523438 171.535156 99.011719 C 170.25 99.503906 168.992188 100.050781 167.761719 100.65625 C 166.53125 101.261719 165.328125 101.921875 164.15625 102.636719 C 162.984375 103.351562 161.847656 104.121094 160.746094 104.9375 C 159.644531 105.757812 158.585938 106.625 157.5625 107.542969 C 156.539062 108.457031 155.5625 109.417969 154.628906 110.425781 C 153.695312 111.429688 152.808594 112.476562 151.96875 113.5625 C 151.132812 114.652344 150.34375 115.773438 149.609375 116.933594 C 148.875 118.089844 148.195312 119.28125 147.566406 120.5 C 146.941406 121.722656 146.371094 122.96875 145.859375 124.242188 C 145.347656 125.515625 144.894531 126.808594 144.5 128.121094 C 144.105469 129.4375 143.773438 130.765625 143.5 132.109375 C 143.226562 133.457031 143.015625 134.808594 142.871094 136.175781 L 134.550781 136.175781 C 134.707031 134.542969 134.9375 132.917969 135.238281 131.304688 C 135.542969 129.695312 135.921875 128.101562 136.371094 126.523438 C 136.824219 124.945312 137.347656 123.390625 137.941406 121.863281 C 138.535156 120.332031 139.199219 118.835938 139.929688 117.367188 C 140.664062 115.898438 141.460938 114.464844 142.324219 113.070312 C 143.1875 111.675781 144.113281 110.324219 145.101562 109.015625 C 146.09375 107.703125 147.136719 106.441406 148.242188 105.230469 C 149.347656 104.015625 150.507812 102.855469 151.71875 101.75 C 152.929688 100.640625 154.1875 99.59375 155.496094 98.601562 C 156.804688 97.609375 158.15625 96.683594 159.550781 95.816406 C 160.945312 94.949219 162.375 94.148438 163.84375 93.414062 C 165.308594 92.675781 166.808594 92.011719 168.335938 91.414062 C 169.867188 90.816406 171.417969 90.289062 172.996094 89.835938 C 174.574219 89.378906 176.167969 89 177.78125 88.691406 C 179.394531 88.382812 181.015625 88.152344 182.648438 87.992188 C 184.285156 87.832031 185.921875 87.75 187.5625 87.742188 Z M 122.769531 149.03125 C 122.769531 147.589844 124.210938 146.261719 126.234375 145.652344 C 126.914062 145.464844 127.609375 145.371094 128.3125 145.375 L 147.359375 145.375 C 150.632812 145.375 152.90625 147.3125 152.90625 149.058594 L 152.90625 155.597656 L 122.769531 155.597656 Z M 103.5 174.9375 C 103.5 174.210938 103.570312 173.488281 103.710938 172.773438 C 103.851562 172.0625 104.0625 171.367188 104.34375 170.695312 C 104.621094 170.023438 104.960938 169.386719 105.367188 168.78125 C 105.773438 168.175781 106.230469 167.613281 106.746094 167.101562 C 107.261719 166.585938 107.820312 166.125 108.425781 165.722656 C 109.03125 165.316406 109.671875 164.976562 110.34375 164.699219 C 111.015625 164.417969 111.710938 164.210938 112.425781 164.066406 C 113.140625 163.925781 113.859375 163.855469 114.589844 163.855469 L 260.566406 163.855469 C 261.292969 163.855469 262.015625 163.925781 262.730469 164.066406 C 263.445312 164.210938 264.136719 164.417969 264.808594 164.699219 C 265.484375 164.976562 266.121094 165.316406 266.726562 165.722656 C 267.332031 166.125 267.894531 166.585938 268.410156 167.101562 C 268.921875 167.613281 269.382812 168.175781 269.789062 168.78125 C 270.191406 169.386719 270.535156 170.023438 270.8125 170.695312 C 271.089844 171.367188 271.300781 172.0625 271.445312 172.773438 C 271.585938 173.488281 271.65625 174.210938 271.65625 174.9375 L 271.65625 214.808594 C 271.65625 215.886719 271.601562 216.960938 271.496094 218.03125 C 271.390625 219.105469 271.230469 220.167969 271.019531 221.226562 C 270.808594 222.28125 270.546875 223.328125 270.230469 224.355469 C 269.917969 225.386719 269.554688 226.402344 269.140625 227.394531 C 268.726562 228.390625 268.265625 229.363281 267.757812 230.3125 C 267.25 231.265625 266.695312 232.1875 266.097656 233.082031 C 265.496094 233.976562 264.855469 234.84375 264.171875 235.675781 C 263.484375 236.507812 262.761719 237.304688 262 238.066406 C 261.238281 238.828125 260.4375 239.550781 259.605469 240.234375 C 258.769531 240.917969 257.90625 241.558594 257.007812 242.15625 C 256.113281 242.753906 255.1875 243.304688 254.238281 243.8125 C 253.285156 244.320312 252.3125 244.78125 251.316406 245.195312 C 250.320312 245.605469 249.304688 245.96875 248.273438 246.28125 C 247.242188 246.59375 246.199219 246.855469 245.140625 247.066406 C 244.082031 247.273438 243.019531 247.433594 241.945312 247.539062 C 240.871094 247.644531 239.796875 247.695312 238.71875 247.695312 L 203.285156 247.695312 L 203.285156 235.921875 C 203.285156 235.648438 203.257812 235.378906 203.203125 235.109375 C 203.152344 234.84375 203.070312 234.582031 202.96875 234.332031 C 202.863281 234.078125 202.734375 233.839844 202.582031 233.613281 C 202.429688 233.386719 202.257812 233.175781 202.066406 232.980469 C 201.871094 232.789062 201.664062 232.617188 201.4375 232.464844 C 201.207031 232.3125 200.96875 232.1875 200.71875 232.082031 C 200.464844 231.976562 200.203125 231.898438 199.9375 231.84375 C 199.667969 231.792969 199.398438 231.765625 199.125 231.765625 L 175.558594 231.765625 C 175.285156 231.765625 175.015625 231.792969 174.746094 231.84375 C 174.480469 231.898438 174.21875 231.976562 173.964844 232.082031 C 173.714844 232.1875 173.476562 232.3125 173.246094 232.464844 C 173.019531 232.617188 172.808594 232.789062 172.617188 232.980469 C 172.425781 233.175781 172.25 233.386719 172.101562 233.613281 C 171.949219 233.839844 171.820312 234.078125 171.714844 234.332031 C 171.613281 234.582031 171.53125 234.84375 171.480469 235.109375 C 171.425781 235.378906 171.398438 235.648438 171.398438 235.921875 L 171.398438 247.695312 L 136.410156 247.695312 C 135.332031 247.695312 134.257812 247.640625 133.183594 247.535156 C 132.113281 247.429688 131.046875 247.269531 129.992188 247.058594 C 128.933594 246.847656 127.890625 246.585938 126.859375 246.273438 C 125.828125 245.960938 124.8125 245.597656 123.820312 245.1875 C 122.824219 244.773438 121.851562 244.3125 120.902344 243.804688 C 119.949219 243.296875 119.027344 242.742188 118.132812 242.144531 C 117.234375 241.546875 116.371094 240.90625 115.539062 240.222656 C 114.707031 239.539062 113.90625 238.816406 113.144531 238.054688 C 112.382812 237.292969 111.660156 236.496094 110.976562 235.664062 C 110.292969 234.832031 109.652344 233.96875 109.054688 233.074219 C 108.453125 232.179688 107.902344 231.253906 107.390625 230.304688 C 106.882812 229.355469 106.421875 228.382812 106.011719 227.390625 C 105.597656 226.394531 105.234375 225.382812 104.921875 224.351562 C 104.609375 223.320312 104.347656 222.277344 104.136719 221.222656 C 103.925781 220.167969 103.765625 219.101562 103.660156 218.03125 C 103.550781 216.960938 103.5 215.886719 103.5 214.808594 Z M 179.71875 251.851562 L 179.71875 240.132812 L 194.964844 240.132812 L 194.964844 258.835938 C 194.964844 259.335938 194.917969 259.832031 194.820312 260.320312 C 194.722656 260.8125 194.578125 261.289062 194.386719 261.75 C 194.195312 262.214844 193.960938 262.652344 193.679688 263.070312 C 193.402344 263.484375 193.085938 263.871094 192.734375 264.222656 C 192.378906 264.578125 191.992188 264.894531 191.578125 265.171875 C 191.160156 265.449219 190.722656 265.683594 190.257812 265.875 C 189.796875 266.066406 189.320312 266.210938 188.828125 266.308594 C 188.339844 266.40625 187.84375 266.453125 187.339844 266.453125 C 186.839844 266.453125 186.34375 266.40625 185.855469 266.308594 C 185.363281 266.210938 184.886719 266.066406 184.425781 265.875 C 183.960938 265.683594 183.523438 265.449219 183.105469 265.171875 C 182.691406 264.894531 182.304688 264.578125 181.949219 264.222656 C 181.597656 263.871094 181.28125 263.484375 181.003906 263.070312 C 180.722656 262.652344 180.488281 262.214844 180.296875 261.75 C 180.105469 261.289062 179.960938 260.8125 179.863281 260.320312 C 179.765625 259.832031 179.71875 259.335938 179.71875 258.835938 Z M 276.757812 278.480469 C 275.636719 279.851562 274.375 281.082031 272.980469 282.171875 C 271.585938 283.261719 270.085938 284.183594 268.484375 284.941406 C 266.882812 285.699219 265.21875 286.269531 263.488281 286.65625 C 261.757812 287.042969 260.007812 287.238281 258.238281 287.234375 L 116.835938 287.234375 C 115.953125 287.234375 115.074219 287.1875 114.199219 287.089844 C 113.320312 286.992188 112.453125 286.847656 111.59375 286.65625 C 110.734375 286.460938 109.886719 286.222656 109.050781 285.9375 C 108.21875 285.652344 107.402344 285.320312 106.605469 284.945312 C 105.808594 284.570312 105.035156 284.148438 104.28125 283.6875 C 103.53125 283.226562 102.808594 282.726562 102.113281 282.1875 C 101.417969 281.644531 100.753906 281.066406 100.121094 280.453125 C 99.488281 279.839844 98.890625 279.191406 98.332031 278.511719 C 97.769531 277.832031 97.25 277.125 96.765625 276.386719 C 96.285156 275.648438 95.84375 274.886719 95.445312 274.101562 C 95.046875 273.316406 94.691406 272.511719 94.382812 271.6875 C 94.074219 270.863281 93.808594 270.023438 93.59375 269.167969 C 93.375 268.3125 93.207031 267.449219 93.085938 266.578125 C 92.960938 265.707031 92.890625 264.828125 92.863281 263.949219 C 92.839844 263.066406 92.863281 262.1875 92.933594 261.3125 C 93.007812 260.433594 93.125 259.5625 93.296875 258.695312 L 98.535156 231.15625 C 98.980469 232.179688 99.476562 233.207031 100.03125 234.203125 L 100.476562 235.007812 C 100.917969 235.800781 101.390625 236.578125 101.890625 237.335938 L 102.5 238.222656 C 103.074219 239.050781 103.683594 239.863281 104.328125 240.660156 L 104.664062 241.074219 C 105.410156 241.988281 106.214844 242.847656 107.046875 243.707031 L 107.742188 244.371094 C 108.386719 245 109.050781 245.609375 109.738281 246.199219 L 110.539062 246.894531 C 111.371094 247.558594 112.203125 248.195312 113.089844 248.804688 L 113.425781 249.054688 C 114.421875 249.71875 115.421875 250.328125 116.472656 250.910156 L 117.359375 251.382812 C 118.15625 251.808594 118.96875 252.195312 119.800781 252.546875 L 120.773438 252.960938 C 121.796875 253.375 122.878906 253.792969 123.933594 254.125 L 124.183594 254.125 C 125.347656 254.484375 126.511719 254.789062 127.730469 255.039062 L 128.757812 255.234375 C 129.664062 255.398438 130.585938 255.539062 131.527344 255.648438 L 132.636719 255.648438 C 133.886719 255.648438 135.160156 255.84375 136.4375 255.84375 L 171.398438 255.84375 L 171.398438 258.613281 C 171.398438 259.136719 171.425781 259.65625 171.476562 260.175781 C 171.527344 260.695312 171.605469 261.210938 171.707031 261.722656 C 171.808594 262.234375 171.933594 262.738281 172.085938 263.238281 C 172.238281 263.738281 172.414062 264.226562 172.613281 264.710938 C 172.8125 265.191406 173.035156 265.664062 173.28125 266.125 C 173.527344 266.582031 173.796875 267.03125 174.085938 267.464844 C 174.375 267.898438 174.6875 268.316406 175.019531 268.71875 C 175.347656 269.125 175.699219 269.511719 176.070312 269.878906 C 176.4375 270.246094 176.824219 270.597656 177.226562 270.929688 C 177.632812 271.261719 178.050781 271.570312 178.484375 271.859375 C 178.917969 272.148438 179.367188 272.417969 179.828125 272.664062 C 180.285156 272.910156 180.757812 273.132812 181.242188 273.332031 C 181.722656 273.53125 182.214844 273.707031 182.714844 273.859375 C 183.214844 274.011719 183.71875 274.136719 184.230469 274.238281 C 184.742188 274.339844 185.257812 274.417969 185.777344 274.46875 C 186.296875 274.519531 186.820312 274.546875 187.339844 274.546875 C 187.863281 274.546875 188.386719 274.519531 188.90625 274.46875 C 189.425781 274.417969 189.941406 274.339844 190.453125 274.238281 C 190.964844 274.136719 191.46875 274.011719 191.96875 273.859375 C 192.46875 273.707031 192.960938 273.53125 193.441406 273.332031 C 193.925781 273.132812 194.398438 272.910156 194.855469 272.664062 C 195.316406 272.417969 195.765625 272.148438 196.199219 271.859375 C 196.632812 271.570312 197.050781 271.261719 197.457031 270.929688 C 197.859375 270.597656 198.246094 270.246094 198.613281 269.878906 C 198.984375 269.511719 199.335938 269.125 199.664062 268.71875 C 199.996094 268.316406 200.308594 267.898438 200.597656 267.464844 C 200.886719 267.03125 201.15625 266.582031 201.402344 266.125 C 201.648438 265.664062 201.871094 265.191406 202.070312 264.710938 C 202.269531 264.226562 202.445312 263.738281 202.597656 263.238281 C 202.75 262.738281 202.875 262.234375 202.976562 261.722656 C 203.078125 261.210938 203.15625 260.695312 203.207031 260.175781 C 203.257812 259.65625 203.285156 259.136719 203.285156 258.613281 L 203.285156 255.84375 L 238.71875 255.84375 C 239.992188 255.84375 241.269531 255.84375 242.515625 255.648438 L 243.625 255.648438 C 244.550781 255.539062 245.472656 255.398438 246.398438 255.234375 L 247.425781 255.039062 C 248.617188 254.789062 249.808594 254.484375 250.972656 254.125 L 251.222656 254.125 C 252.304688 253.792969 253.359375 253.375 254.410156 252.960938 L 255.410156 252.546875 C 256.242188 252.175781 257.054688 251.789062 257.847656 251.382812 L 258.738281 250.910156 C 259.789062 250.328125 260.789062 249.71875 261.785156 249.054688 L 262.117188 248.804688 C 262.976562 248.195312 263.839844 247.558594 264.667969 246.894531 L 265.472656 246.199219 C 266.15625 245.609375 266.824219 245 267.46875 244.371094 L 268.164062 243.707031 C 268.996094 242.875 269.800781 241.988281 270.546875 241.074219 L 270.878906 240.660156 C 271.527344 239.863281 272.136719 239.050781 272.710938 238.222656 L 273.320312 237.335938 C 273.820312 236.578125 274.289062 235.800781 274.734375 235.007812 L 275.179688 234.203125 C 275.703125 233.207031 276.203125 232.207031 276.675781 231.15625 L 281.832031 258.695312 C 282.160156 260.429688 282.296875 262.179688 282.234375 263.941406 C 282.175781 265.707031 281.925781 267.441406 281.484375 269.148438 C 281.039062 270.855469 280.414062 272.496094 279.609375 274.066406 C 278.800781 275.632812 277.832031 277.097656 276.703125 278.453125 Z M 234.699219 235.226562 C 234.699219 234.957031 234.722656 234.683594 234.777344 234.417969 C 234.832031 234.148438 234.910156 233.890625 235.015625 233.636719 C 235.117188 233.386719 235.246094 233.144531 235.398438 232.917969 C 235.550781 232.691406 235.722656 232.484375 235.914062 232.289062 C 236.109375 232.097656 236.320312 231.925781 236.546875 231.773438 C 236.773438 231.621094 237.011719 231.492188 237.265625 231.390625 C 237.515625 231.285156 237.777344 231.207031 238.046875 231.152344 C 238.3125 231.097656 238.582031 231.074219 238.855469 231.074219 C 239.390625 231.070312 239.921875 231.042969 240.453125 230.992188 C 240.980469 230.9375 241.507812 230.859375 242.03125 230.753906 C 242.550781 230.652344 243.070312 230.519531 243.578125 230.367188 C 244.085938 230.210938 244.589844 230.03125 245.082031 229.828125 C 245.574219 229.621094 246.054688 229.394531 246.523438 229.144531 C 246.992188 228.890625 247.449219 228.617188 247.890625 228.324219 C 248.335938 228.027344 248.761719 227.710938 249.175781 227.371094 C 249.585938 227.035156 249.980469 226.675781 250.355469 226.300781 C 250.734375 225.925781 251.089844 225.53125 251.429688 225.117188 C 251.765625 224.707031 252.085938 224.28125 252.378906 223.835938 C 252.675781 223.394531 252.949219 222.9375 253.203125 222.46875 C 253.453125 222 253.679688 221.519531 253.886719 221.027344 C 254.089844 220.535156 254.269531 220.035156 254.425781 219.527344 C 254.582031 219.015625 254.710938 218.5 254.816406 217.980469 C 254.917969 217.457031 255 216.929688 255.050781 216.402344 C 255.105469 215.871094 255.132812 215.339844 255.132812 214.808594 L 255.132812 208.851562 C 255.132812 208.578125 255.160156 208.308594 255.210938 208.039062 C 255.265625 207.773438 255.34375 207.511719 255.449219 207.261719 C 255.554688 207.007812 255.679688 206.769531 255.832031 206.542969 C 255.984375 206.316406 256.15625 206.105469 256.351562 205.914062 C 256.542969 205.71875 256.753906 205.546875 256.980469 205.394531 C 257.207031 205.242188 257.445312 205.117188 257.699219 205.011719 C 257.953125 204.90625 258.210938 204.828125 258.480469 204.773438 C 258.746094 204.722656 259.019531 204.695312 259.289062 204.695312 C 259.5625 204.695312 259.835938 204.722656 260.101562 204.773438 C 260.371094 204.828125 260.628906 204.90625 260.882812 205.011719 C 261.132812 205.117188 261.375 205.242188 261.601562 205.394531 C 261.828125 205.546875 262.039062 205.71875 262.230469 205.914062 C 262.425781 206.105469 262.597656 206.316406 262.75 206.542969 C 262.902344 206.769531 263.027344 207.007812 263.132812 207.261719 C 263.238281 207.511719 263.316406 207.773438 263.371094 208.039062 C 263.421875 208.308594 263.449219 208.578125 263.449219 208.851562 L 263.449219 214.808594 C 263.449219 215.613281 263.410156 216.414062 263.328125 217.214844 C 263.25 218.015625 263.128906 218.8125 262.972656 219.601562 C 262.816406 220.390625 262.617188 221.167969 262.382812 221.9375 C 262.148438 222.710938 261.878906 223.464844 261.570312 224.207031 C 261.261719 224.953125 260.917969 225.679688 260.539062 226.386719 C 260.15625 227.097656 259.746094 227.785156 259.296875 228.457031 C 258.847656 229.125 258.371094 229.769531 257.859375 230.390625 C 257.347656 231.015625 256.808594 231.609375 256.238281 232.179688 C 255.667969 232.746094 255.074219 233.285156 254.449219 233.796875 C 253.828125 234.308594 253.183594 234.785156 252.511719 235.234375 C 251.84375 235.679688 251.15625 236.09375 250.445312 236.472656 C 249.734375 236.855469 249.007812 237.199219 248.265625 237.507812 C 247.519531 237.816406 246.761719 238.085938 245.992188 238.320312 C 245.222656 238.554688 244.441406 238.75 243.652344 238.90625 C 242.863281 239.066406 242.066406 239.183594 241.265625 239.265625 C 240.464844 239.34375 239.660156 239.382812 238.855469 239.382812 C 238.582031 239.382812 238.3125 239.359375 238.046875 239.304688 C 237.777344 239.25 237.515625 239.171875 237.265625 239.066406 C 237.011719 238.964844 236.773438 238.835938 236.546875 238.683594 C 236.320312 238.53125 236.109375 238.359375 235.914062 238.167969 C 235.722656 237.972656 235.550781 237.765625 235.398438 237.539062 C 235.246094 237.3125 235.117188 237.070312 235.015625 236.820312 C 234.910156 236.566406 234.832031 236.308594 234.777344 236.039062 C 234.722656 235.773438 234.699219 235.5 234.699219 235.226562 Z M 254.992188 194.136719 L 254.992188 193.03125 C 254.992188 192.757812 255.019531 192.488281 255.074219 192.21875 C 255.125 191.953125 255.207031 191.691406 255.308594 191.441406 C 255.414062 191.1875 255.542969 190.949219 255.695312 190.722656 C 255.847656 190.496094 256.019531 190.285156 256.210938 190.089844 C 256.40625 189.898438 256.613281 189.726562 256.839844 189.574219 C 257.070312 189.421875 257.308594 189.292969 257.5625 189.191406 C 257.8125 189.085938 258.074219 189.007812 258.339844 188.953125 C 258.609375 188.902344 258.878906 188.875 259.152344 188.875 C 259.425781 188.875 259.695312 188.902344 259.964844 188.953125 C 260.230469 189.007812 260.492188 189.085938 260.742188 189.191406 C 260.996094 189.292969 261.234375 189.421875 261.460938 189.574219 C 261.691406 189.726562 261.898438 189.898438 262.09375 190.089844 C 262.285156 190.285156 262.457031 190.496094 262.609375 190.722656 C 262.761719 190.949219 262.890625 191.1875 262.996094 191.441406 C 263.097656 191.691406 263.179688 191.953125 263.230469 192.21875 C 263.285156 192.488281 263.3125 192.757812 263.3125 193.03125 L 263.3125 194.082031 C 263.3125 194.355469 263.285156 194.625 263.230469 194.894531 C 263.179688 195.160156 263.097656 195.421875 262.996094 195.671875 C 262.890625 195.925781 262.761719 196.164062 262.609375 196.390625 C 262.457031 196.617188 262.285156 196.828125 262.09375 197.023438 C 261.898438 197.214844 261.691406 197.386719 261.460938 197.539062 C 261.234375 197.691406 260.996094 197.816406 260.742188 197.921875 C 260.492188 198.027344 260.230469 198.105469 259.964844 198.160156 C 259.695312 198.210938 259.425781 198.238281 259.152344 198.238281 C 258.878906 198.238281 258.609375 198.210938 258.339844 198.160156 C 258.074219 198.105469 257.8125 198.027344 257.5625 197.921875 C 257.308594 197.816406 257.070312 197.691406 256.839844 197.539062 C 256.613281 197.386719 256.40625 197.214844 256.210938 197.023438 C 256.019531 196.828125 255.847656 196.617188 255.695312 196.390625 C 255.542969 196.164062 255.414062 195.925781 255.308594 195.671875 C 255.207031 195.421875 255.125 195.160156 255.074219 194.894531 C 255.019531 194.625 254.992188 194.355469 254.992188 194.082031 Z M 184.625 214.058594 C 184.816406 214.253906 185.027344 214.425781 185.253906 214.574219 C 185.480469 214.726562 185.722656 214.855469 185.972656 214.960938 C 186.226562 215.0625 186.484375 215.144531 186.753906 215.195312 C 187.019531 215.25 187.289062 215.277344 187.5625 215.277344 C 187.835938 215.277344 188.105469 215.25 188.375 215.195312 C 188.640625 215.144531 188.902344 215.0625 189.152344 214.960938 C 189.40625 214.855469 189.644531 214.726562 189.871094 214.574219 C 190.097656 214.425781 190.308594 214.253906 190.503906 214.058594 L 204.726562 199.875 C 204.917969 199.679688 205.089844 199.472656 205.242188 199.246094 C 205.394531 199.015625 205.523438 198.777344 205.625 198.527344 C 205.730469 198.273438 205.808594 198.015625 205.863281 197.746094 C 205.914062 197.480469 205.941406 197.210938 205.941406 196.9375 C 205.941406 196.664062 205.914062 196.394531 205.863281 196.125 C 205.808594 195.859375 205.730469 195.597656 205.625 195.347656 C 205.523438 195.09375 205.394531 194.855469 205.242188 194.628906 C 205.089844 194.402344 204.917969 194.191406 204.726562 194 L 190.53125 179.8125 C 190.335938 179.621094 190.128906 179.449219 189.898438 179.296875 C 189.671875 179.144531 189.433594 179.019531 189.183594 178.914062 C 188.929688 178.808594 188.667969 178.730469 188.402344 178.679688 C 188.132812 178.625 187.863281 178.597656 187.589844 178.597656 C 187.320312 178.597656 187.046875 178.625 186.78125 178.679688 C 186.511719 178.730469 186.253906 178.808594 186 178.914062 C 185.75 179.019531 185.507812 179.144531 185.28125 179.296875 C 185.054688 179.449219 184.84375 179.621094 184.652344 179.8125 L 170.457031 194.027344 C 170.265625 194.21875 170.089844 194.429688 169.941406 194.65625 C 169.789062 194.882812 169.660156 195.125 169.554688 195.375 C 169.453125 195.628906 169.375 195.886719 169.320312 196.15625 C 169.265625 196.421875 169.242188 196.691406 169.242188 196.964844 C 169.242188 197.238281 169.265625 197.507812 169.320312 197.773438 C 169.375 198.042969 169.453125 198.300781 169.554688 198.554688 C 169.660156 198.804688 169.789062 199.046875 169.941406 199.273438 C 170.089844 199.5 170.265625 199.707031 170.457031 199.902344 Z M 187.5625 188.597656 L 195.882812 196.910156 L 187.5625 205.222656 L 179.246094 196.910156 Z M 187.5625 188.597656 " fill-opacity="1" fill-rule="nonzero"/></g></svg>