<svg xmlns="http://www.w3.org/2000/svg" xmlns:xlink="http://www.w3.org/1999/xlink" width="500" zoomAndPan="magnify" viewBox="0 0 375 374.999991" height="500" preserveAspectRatio="xMidYMid meet" version="1.0"><defs><clipPath id="895dfd25f2"><path d="M 14.964844 14.964844 L 359.964844 14.964844 L 359.964844 359.964844 L 14.964844 359.964844 Z M 14.964844 14.964844 " clip-rule="nonzero"/></clipPath><clipPath id="77bd804a9d"><path d="M 103.421875 89 L 175 89 L 175 304.867188 L 103.421875 304.867188 Z M 103.421875 89 " clip-rule="nonzero"/></clipPath><clipPath id="d006d78d6d"><path d="M 174 70.117188 L 269 70.117188 L 269 304.867188 L 174 304.867188 Z M 174 70.117188 " clip-rule="nonzero"/></clipPath></defs><g clip-path="url(#895dfd25f2)"><path fill="#f0b47d" d="M 359.964844 187.464844 C 359.964844 190.285156 359.894531 193.109375 359.757812 195.929688 C 359.617188 198.746094 359.410156 201.5625 359.132812 204.371094 C 358.855469 207.179688 358.511719 209.980469 358.097656 212.773438 C 357.683594 215.566406 357.199219 218.347656 356.648438 221.117188 C 356.097656 223.886719 355.480469 226.640625 354.792969 229.378906 C 354.109375 232.117188 353.355469 234.835938 352.535156 237.539062 C 351.714844 240.238281 350.832031 242.917969 349.878906 245.578125 C 348.929688 248.234375 347.914062 250.867188 346.832031 253.476562 C 345.753906 256.085938 344.609375 258.664062 343.402344 261.21875 C 342.195312 263.769531 340.925781 266.289062 339.59375 268.78125 C 338.265625 271.269531 336.875 273.726562 335.421875 276.148438 C 333.972656 278.566406 332.460938 280.953125 330.890625 283.300781 C 329.324219 285.648438 327.699219 287.953125 326.015625 290.222656 C 324.335938 292.488281 322.597656 294.714844 320.808594 296.898438 C 319.015625 299.078125 317.175781 301.214844 315.277344 303.308594 C 313.382812 305.398438 311.4375 307.445312 309.441406 309.441406 C 307.445312 311.4375 305.398438 313.382812 303.308594 315.277344 C 301.214844 317.175781 299.078125 319.015625 296.898438 320.808594 C 294.714844 322.597656 292.488281 324.335938 290.222656 326.015625 C 287.953125 327.699219 285.648438 329.324219 283.300781 330.890625 C 280.953125 332.460938 278.566406 333.96875 276.148438 335.421875 C 273.726562 336.875 271.269531 338.265625 268.78125 339.59375 C 266.289062 340.925781 263.769531 342.195312 261.21875 343.402344 C 258.664062 344.609375 256.085938 345.753906 253.476562 346.832031 C 250.867188 347.914062 248.234375 348.929688 245.578125 349.878906 C 242.917969 350.832031 240.238281 351.714844 237.539062 352.535156 C 234.835938 353.355469 232.117188 354.109375 229.378906 354.792969 C 226.640625 355.480469 223.886719 356.097656 221.117188 356.648438 C 218.347656 357.199219 215.566406 357.683594 212.773438 358.097656 C 209.980469 358.511719 207.179688 358.855469 204.371094 359.132812 C 201.5625 359.410156 198.746094 359.617188 195.929688 359.757812 C 193.109375 359.894531 190.285156 359.964844 187.464844 359.964844 C 184.640625 359.964844 181.820312 359.894531 179 359.757812 C 176.179688 359.617188 173.367188 359.410156 170.554688 359.132812 C 167.746094 358.855469 164.945312 358.511719 162.152344 358.097656 C 159.359375 357.683594 156.578125 357.199219 153.8125 356.648438 C 151.042969 356.097656 148.289062 355.480469 145.550781 354.792969 C 142.8125 354.109375 140.089844 353.355469 137.390625 352.535156 C 134.6875 351.714844 132.007812 350.832031 129.351562 349.878906 C 126.691406 348.929688 124.058594 347.914062 121.449219 346.832031 C 118.84375 345.753906 116.261719 344.609375 113.710938 343.402344 C 111.160156 342.195312 108.636719 340.925781 106.148438 339.59375 C 103.660156 338.265625 101.203125 336.875 98.78125 335.421875 C 96.359375 333.96875 93.976562 332.460938 91.628906 330.890625 C 89.28125 329.324219 86.972656 327.699219 84.707031 326.015625 C 82.4375 324.335938 80.214844 322.597656 78.03125 320.808594 C 75.847656 319.015625 73.710938 317.171875 71.621094 315.277344 C 69.527344 313.382812 67.484375 311.4375 65.488281 309.441406 C 63.492188 307.445312 61.546875 305.398438 59.648438 303.308594 C 57.753906 301.214844 55.910156 299.078125 54.121094 296.898438 C 52.328125 294.714844 50.59375 292.488281 48.910156 290.222656 C 47.230469 287.953125 45.605469 285.648438 44.035156 283.300781 C 42.46875 280.953125 40.957031 278.566406 39.503906 276.148438 C 38.054688 273.726562 36.664062 271.269531 35.332031 268.78125 C 34 266.289062 32.734375 263.769531 31.527344 261.21875 C 30.320312 258.664062 29.175781 256.085938 28.09375 253.476562 C 27.015625 250.867188 26 248.234375 25.046875 245.578125 C 24.097656 242.917969 23.210938 240.238281 22.390625 237.539062 C 21.570312 234.835938 20.820312 232.117188 20.132812 229.378906 C 19.449219 226.640625 18.828125 223.886719 18.277344 221.117188 C 17.726562 218.347656 17.246094 215.566406 16.832031 212.773438 C 16.417969 209.980469 16.070312 207.179688 15.792969 204.371094 C 15.519531 201.5625 15.308594 198.746094 15.171875 195.929688 C 15.03125 193.109375 14.964844 190.285156 14.964844 187.464844 C 14.964844 184.640625 15.03125 181.820312 15.171875 179 C 15.308594 176.179688 15.519531 173.367188 15.792969 170.554688 C 16.070312 167.746094 16.417969 164.945312 16.832031 162.152344 C 17.246094 159.359375 17.726562 156.578125 18.277344 153.8125 C 18.828125 151.042969 19.449219 148.289062 20.132812 145.550781 C 20.820312 142.8125 21.570312 140.089844 22.390625 137.390625 C 23.210938 134.6875 24.097656 132.007812 25.046875 129.351562 C 26 126.691406 27.015625 124.058594 28.09375 121.449219 C 29.175781 118.84375 30.320312 116.261719 31.527344 113.710938 C 32.734375 111.160156 34 108.636719 35.332031 106.148438 C 36.664062 103.660156 38.054688 101.203125 39.503906 98.78125 C 40.957031 96.359375 42.46875 93.976562 44.035156 91.628906 C 45.605469 89.28125 47.230469 86.972656 48.910156 84.707031 C 50.59375 82.4375 52.328125 80.214844 54.121094 78.03125 C 55.910156 75.847656 57.753906 73.710938 59.648438 71.621094 C 61.546875 69.527344 63.492188 67.484375 65.488281 65.488281 C 67.484375 63.492188 69.527344 61.546875 71.621094 59.648438 C 73.710938 57.753906 75.847656 55.910156 78.03125 54.121094 C 80.214844 52.328125 82.4375 50.59375 84.707031 48.910156 C 86.972656 47.230469 89.28125 45.605469 91.628906 44.035156 C 93.976562 42.46875 96.359375 40.957031 98.78125 39.503906 C 101.203125 38.054688 103.660156 36.664062 106.148438 35.332031 C 108.636719 34 111.160156 32.734375 113.710938 31.527344 C 116.261719 30.320312 118.84375 29.175781 121.449219 28.09375 C 124.058594 27.015625 126.691406 26 129.351562 25.046875 C 132.007812 24.097656 134.6875 23.210938 137.390625 22.390625 C 140.089844 21.570312 142.8125 20.820312 145.550781 20.132812 C 148.289062 19.449219 151.042969 18.828125 153.8125 18.277344 C 156.578125 17.726562 159.359375 17.246094 162.152344 16.832031 C 164.945312 16.417969 167.746094 16.070312 170.554688 15.792969 C 173.367188 15.519531 176.179688 15.308594 179 15.171875 C 181.820312 15.03125 184.640625 14.964844 187.464844 14.964844 C 190.285156 14.964844 193.109375 15.03125 195.929688 15.171875 C 198.746094 15.308594 201.5625 15.519531 204.371094 15.792969 C 207.179688 16.070312 209.980469 16.417969 212.773438 16.832031 C 215.566406 17.246094 218.347656 17.726562 221.117188 18.277344 C 223.886719 18.828125 226.640625 19.449219 229.378906 20.132812 C 232.117188 20.820312 234.835938 21.570312 237.539062 22.390625 C 240.238281 23.210938 242.917969 24.097656 245.578125 25.046875 C 248.234375 26 250.867188 27.015625 253.476562 28.09375 C 256.085938 29.175781 258.664062 30.320312 261.21875 31.527344 C 263.769531 32.734375 266.289062 34 268.78125 35.332031 C 271.269531 36.664062 273.726562 38.054688 276.148438 39.503906 C 278.566406 40.957031 280.953125 42.46875 283.300781 44.035156 C 285.648438 45.605469 287.953125 47.230469 290.222656 48.910156 C 292.488281 50.59375 294.714844 52.328125 296.898438 54.121094 C 299.078125 55.910156 301.214844 57.753906 303.308594 59.648438 C 305.398438 61.546875 307.445312 63.492188 309.441406 65.488281 C 311.4375 67.484375 313.382812 69.527344 315.277344 71.621094 C 317.175781 73.710938 319.015625 75.847656 320.808594 78.03125 C 322.597656 80.214844 324.335938 82.4375 326.015625 84.707031 C 327.699219 86.972656 329.324219 89.28125 330.890625 91.628906 C 332.460938 93.976562 333.972656 96.359375 335.421875 98.78125 C 336.875 101.203125 338.265625 103.660156 339.59375 106.148438 C 340.925781 108.636719 342.195312 111.160156 343.402344 113.710938 C 344.609375 116.261719 345.753906 118.84375 346.832031 121.449219 C 347.914062 124.058594 348.929688 126.691406 349.878906 129.351562 C 350.832031 132.007812 351.714844 134.6875 352.535156 137.390625 C 353.355469 140.089844 354.109375 142.8125 354.792969 145.550781 C 355.480469 148.289062 356.097656 151.042969 356.648438 153.8125 C 357.199219 156.578125 357.683594 159.359375 358.097656 162.152344 C 358.511719 164.945312 358.855469 167.746094 359.132812 170.554688 C 359.410156 173.367188 359.617188 176.179688 359.757812 179 C 359.894531 181.820312 359.964844 184.640625 359.964844 187.464844 Z M 359.964844 187.464844 " fill-opacity="1" fill-rule="nonzero"/></g><g clip-path="url(#77bd804a9d)"><path fill="#ffffff" d="M 154.78125 297.039062 L 123.507812 297.039062 C 117.035156 297.039062 111.78125 291.78125 111.78125 285.304688 L 111.78125 207.054688 L 166.507812 207.054688 L 166.507812 285.304688 C 166.507812 291.78125 161.257812 297.039062 154.78125 297.039062 Z M 115.691406 187.492188 L 162.601562 187.492188 C 164.753906 187.492188 166.507812 189.246094 166.507812 191.402344 L 166.507812 199.226562 L 111.78125 199.226562 L 111.78125 191.402344 C 111.78125 189.246094 113.539062 187.492188 115.691406 187.492188 Z M 119.597656 160.101562 C 119.597656 157.949219 121.355469 156.191406 123.507812 156.191406 L 154.78125 156.191406 C 156.933594 156.191406 158.691406 157.949219 158.691406 160.101562 L 158.691406 179.664062 L 119.597656 179.664062 Z M 127.417969 99.351562 C 127.417969 98.375 128.074219 97.898438 128.363281 97.746094 C 128.730469 97.546875 129.433594 97.304688 130.242188 97.792969 L 148.046875 108.917969 C 149.820312 110.035156 150.871094 111.945312 150.871094 114.039062 L 150.871094 148.367188 L 127.417969 148.367188 Z M 152.1875 102.285156 L 134.382812 91.160156 C 131.371094 89.265625 127.691406 89.171875 124.578125 90.902344 C 121.507812 92.597656 119.597656 95.851562 119.597656 99.351562 L 119.597656 149.082031 C 115.0625 150.703125 111.78125 155.011719 111.78125 160.101562 L 111.78125 180.382812 C 107.246094 182.003906 103.964844 186.3125 103.964844 191.402344 L 103.964844 285.304688 C 103.964844 296.09375 112.726562 304.867188 123.507812 304.867188 L 154.78125 304.867188 C 165.5625 304.867188 174.328125 296.09375 174.328125 285.304688 L 174.328125 191.402344 C 174.328125 186.3125 171.042969 182.003906 166.507812 180.382812 L 166.507812 160.101562 C 166.507812 155.011719 163.226562 150.703125 158.691406 149.082031 L 158.691406 114.039062 C 158.691406 109.226562 156.261719 104.839844 152.1875 102.285156 " fill-opacity="1" fill-rule="nonzero"/></g><g clip-path="url(#d006d78d6d)"><path fill="#ffffff" d="M 259.214844 104.671875 L 241.867188 148.367188 L 200.609375 148.367188 L 183.261719 104.671875 C 180.375 97.394531 183.261719 89.050781 189.964844 85.246094 C 198.53125 80.402344 209.050781 77.941406 221.238281 77.941406 C 233.421875 77.941406 243.945312 80.402344 252.511719 85.246094 C 259.214844 89.050781 262.101562 97.394531 259.214844 104.671875 Z M 236.875 297.039062 L 205.601562 297.039062 C 199.125 297.039062 193.875 291.78125 193.875 285.304688 L 248.601562 285.304688 C 248.601562 291.78125 243.347656 297.039062 236.875 297.039062 Z M 248.601562 175.753906 L 248.601562 277.476562 L 193.875 277.476562 L 193.875 175.753906 Z M 244.691406 156.191406 C 246.84375 156.191406 248.601562 157.949219 248.601562 160.101562 L 248.601562 167.929688 L 193.875 167.929688 L 193.875 160.101562 C 193.875 157.949219 195.628906 156.191406 197.78125 156.191406 Z M 256.359375 78.445312 C 246.617188 72.914062 234.796875 70.117188 221.238281 70.117188 C 207.675781 70.117188 195.859375 72.914062 186.117188 78.445312 C 176.023438 84.144531 171.6875 96.664062 175.992188 107.558594 L 192.683594 149.589844 C 188.773438 151.5 186.054688 155.472656 186.054688 160.101562 L 186.054688 285.304688 C 186.054688 296.09375 194.820312 304.867188 205.601562 304.867188 L 236.875 304.867188 C 247.65625 304.867188 256.417969 296.09375 256.417969 285.304688 L 256.417969 160.101562 C 256.417969 155.472656 253.703125 151.5 249.792969 149.589844 L 266.484375 107.558594 C 270.789062 96.664062 266.453125 84.144531 256.359375 78.445312 " fill-opacity="1" fill-rule="nonzero"/></g><path fill="#ffffff" d="M 201.492188 96.265625 C 200.804688 94.21875 198.605469 93.101562 196.546875 93.789062 C 194.5 94.476562 193.398438 96.691406 194.070312 98.742188 L 201.890625 122.214844 C 202.441406 123.851562 203.96875 124.890625 205.601562 124.890625 C 206.011719 124.890625 206.425781 124.828125 206.835938 124.691406 C 208.882812 124.003906 209.984375 121.789062 209.3125 119.738281 L 201.492188 96.265625 " fill-opacity="1" fill-rule="nonzero"/><path fill="#ffffff" d="M 245.929688 93.789062 C 243.867188 93.101562 241.667969 94.21875 240.980469 96.265625 L 233.164062 119.738281 C 232.492188 121.789062 233.589844 124.003906 235.636719 124.691406 C 236.050781 124.828125 236.460938 124.890625 236.875 124.890625 C 238.507812 124.890625 240.035156 123.851562 240.585938 122.214844 L 248.402344 98.742188 C 249.074219 96.691406 247.976562 94.476562 245.929688 93.789062 " fill-opacity="1" fill-rule="nonzero"/><path fill="#ffffff" d="M 221.238281 85.765625 C 219.085938 85.765625 217.328125 87.523438 217.328125 89.679688 L 217.328125 117.066406 C 217.328125 119.21875 219.085938 120.976562 221.238281 120.976562 C 223.390625 120.976562 225.148438 119.21875 225.148438 117.066406 L 225.148438 89.679688 C 225.148438 87.523438 223.390625 85.765625 221.238281 85.765625 " fill-opacity="1" fill-rule="nonzero"/></svg>