<svg xmlns="http://www.w3.org/2000/svg" xmlns:xlink="http://www.w3.org/1999/xlink" width="500" zoomAndPan="magnify" viewBox="0 0 375 374.999991" height="500" preserveAspectRatio="xMidYMid meet" version="1.0"><defs><clipPath id="337e5c9901"><path d="M 14.964844 14.964844 L 359.964844 14.964844 L 359.964844 359.964844 L 14.964844 359.964844 Z M 14.964844 14.964844 " clip-rule="nonzero"/></clipPath><clipPath id="edd818882d"><path d="M 209 228 L 295.492188 228 L 295.492188 285 L 209 285 Z M 209 228 " clip-rule="nonzero"/></clipPath><clipPath id="f40a6b3a17"><path d="M 131 198 L 295.492188 198 L 295.492188 303 L 131 303 Z M 131 198 " clip-rule="nonzero"/></clipPath></defs><g clip-path="url(#337e5c9901)"><path fill="#f0b47d" d="M 359.964844 187.464844 C 359.964844 190.285156 359.894531 193.109375 359.757812 195.929688 C 359.617188 198.746094 359.410156 201.5625 359.132812 204.371094 C 358.855469 207.179688 358.511719 209.980469 358.097656 212.773438 C 357.683594 215.566406 357.199219 218.347656 356.648438 221.117188 C 356.097656 223.886719 355.480469 226.640625 354.792969 229.378906 C 354.109375 232.117188 353.355469 234.835938 352.535156 237.539062 C 351.714844 240.238281 350.832031 242.917969 349.878906 245.578125 C 348.929688 248.234375 347.914062 250.867188 346.832031 253.476562 C 345.753906 256.085938 344.609375 258.664062 343.402344 261.21875 C 342.195312 263.769531 340.925781 266.289062 339.59375 268.78125 C 338.265625 271.269531 336.875 273.726562 335.421875 276.148438 C 333.972656 278.566406 332.460938 280.953125 330.890625 283.300781 C 329.324219 285.648438 327.699219 287.953125 326.015625 290.222656 C 324.335938 292.488281 322.597656 294.714844 320.808594 296.898438 C 319.015625 299.078125 317.175781 301.214844 315.277344 303.308594 C 313.382812 305.398438 311.4375 307.445312 309.441406 309.441406 C 307.445312 311.4375 305.398438 313.382812 303.308594 315.277344 C 301.214844 317.175781 299.078125 319.015625 296.898438 320.808594 C 294.714844 322.597656 292.488281 324.335938 290.222656 326.015625 C 287.953125 327.699219 285.648438 329.324219 283.300781 330.890625 C 280.953125 332.460938 278.566406 333.96875 276.148438 335.421875 C 273.726562 336.875 271.269531 338.265625 268.78125 339.59375 C 266.289062 340.925781 263.769531 342.195312 261.21875 343.402344 C 258.664062 344.609375 256.085938 345.753906 253.476562 346.832031 C 250.867188 347.914062 248.234375 348.929688 245.578125 349.878906 C 242.917969 350.832031 240.238281 351.714844 237.539062 352.535156 C 234.835938 353.355469 232.117188 354.109375 229.378906 354.792969 C 226.640625 355.480469 223.886719 356.097656 221.117188 356.648438 C 218.347656 357.199219 215.566406 357.683594 212.773438 358.097656 C 209.980469 358.511719 207.179688 358.855469 204.371094 359.132812 C 201.5625 359.410156 198.746094 359.617188 195.929688 359.757812 C 193.109375 359.894531 190.285156 359.964844 187.464844 359.964844 C 184.640625 359.964844 181.820312 359.894531 179 359.757812 C 176.179688 359.617188 173.367188 359.410156 170.554688 359.132812 C 167.746094 358.855469 164.945312 358.511719 162.152344 358.097656 C 159.359375 357.683594 156.578125 357.199219 153.8125 356.648438 C 151.042969 356.097656 148.289062 355.480469 145.550781 354.792969 C 142.8125 354.109375 140.089844 353.355469 137.390625 352.535156 C 134.6875 351.714844 132.007812 350.832031 129.351562 349.878906 C 126.691406 348.929688 124.058594 347.914062 121.449219 346.832031 C 118.84375 345.753906 116.261719 344.609375 113.710938 343.402344 C 111.160156 342.195312 108.636719 340.925781 106.148438 339.59375 C 103.660156 338.265625 101.203125 336.875 98.78125 335.421875 C 96.359375 333.96875 93.976562 332.460938 91.628906 330.890625 C 89.28125 329.324219 86.972656 327.699219 84.707031 326.015625 C 82.4375 324.335938 80.214844 322.597656 78.03125 320.808594 C 75.847656 319.015625 73.710938 317.171875 71.621094 315.277344 C 69.527344 313.382812 67.484375 311.4375 65.488281 309.441406 C 63.492188 307.445312 61.546875 305.398438 59.648438 303.308594 C 57.753906 301.214844 55.910156 299.078125 54.121094 296.898438 C 52.328125 294.714844 50.59375 292.488281 48.910156 290.222656 C 47.230469 287.953125 45.605469 285.648438 44.035156 283.300781 C 42.46875 280.953125 40.957031 278.566406 39.503906 276.148438 C 38.054688 273.726562 36.664062 271.269531 35.332031 268.78125 C 34 266.289062 32.734375 263.769531 31.527344 261.21875 C 30.320312 258.664062 29.175781 256.085938 28.09375 253.476562 C 27.015625 250.867188 26 248.234375 25.046875 245.578125 C 24.097656 242.917969 23.210938 240.238281 22.390625 237.539062 C 21.570312 234.835938 20.820312 232.117188 20.132812 229.378906 C 19.449219 226.640625 18.828125 223.886719 18.277344 221.117188 C 17.726562 218.347656 17.246094 215.566406 16.832031 212.773438 C 16.417969 209.980469 16.070312 207.179688 15.792969 204.371094 C 15.519531 201.5625 15.308594 198.746094 15.171875 195.929688 C 15.03125 193.109375 14.964844 190.285156 14.964844 187.464844 C 14.964844 184.640625 15.03125 181.820312 15.171875 179 C 15.308594 176.179688 15.519531 173.367188 15.792969 170.554688 C 16.070312 167.746094 16.417969 164.945312 16.832031 162.152344 C 17.246094 159.359375 17.726562 156.578125 18.277344 153.8125 C 18.828125 151.042969 19.449219 148.289062 20.132812 145.550781 C 20.820312 142.8125 21.570312 140.089844 22.390625 137.390625 C 23.210938 134.6875 24.097656 132.007812 25.046875 129.351562 C 26 126.691406 27.015625 124.058594 28.09375 121.449219 C 29.175781 118.84375 30.320312 116.261719 31.527344 113.710938 C 32.734375 111.160156 34 108.636719 35.332031 106.148438 C 36.664062 103.660156 38.054688 101.203125 39.503906 98.78125 C 40.957031 96.359375 42.46875 93.976562 44.035156 91.628906 C 45.605469 89.28125 47.230469 86.972656 48.910156 84.707031 C 50.59375 82.4375 52.328125 80.214844 54.121094 78.03125 C 55.910156 75.847656 57.753906 73.710938 59.648438 71.621094 C 61.546875 69.527344 63.492188 67.484375 65.488281 65.488281 C 67.484375 63.492188 69.527344 61.546875 71.621094 59.648438 C 73.710938 57.753906 75.847656 55.910156 78.03125 54.121094 C 80.214844 52.328125 82.4375 50.59375 84.707031 48.910156 C 86.972656 47.230469 89.28125 45.605469 91.628906 44.035156 C 93.976562 42.46875 96.359375 40.957031 98.78125 39.503906 C 101.203125 38.054688 103.660156 36.664062 106.148438 35.332031 C 108.636719 34 111.160156 32.734375 113.710938 31.527344 C 116.261719 30.320312 118.84375 29.175781 121.449219 28.09375 C 124.058594 27.015625 126.691406 26 129.351562 25.046875 C 132.007812 24.097656 134.6875 23.210938 137.390625 22.390625 C 140.089844 21.570312 142.8125 20.820312 145.550781 20.132812 C 148.289062 19.449219 151.042969 18.828125 153.8125 18.277344 C 156.578125 17.726562 159.359375 17.246094 162.152344 16.832031 C 164.945312 16.417969 167.746094 16.070312 170.554688 15.792969 C 173.367188 15.519531 176.179688 15.308594 179 15.171875 C 181.820312 15.03125 184.640625 14.964844 187.464844 14.964844 C 190.285156 14.964844 193.109375 15.03125 195.929688 15.171875 C 198.746094 15.308594 201.5625 15.519531 204.371094 15.792969 C 207.179688 16.070312 209.980469 16.417969 212.773438 16.832031 C 215.566406 17.246094 218.347656 17.726562 221.117188 18.277344 C 223.886719 18.828125 226.640625 19.449219 229.378906 20.132812 C 232.117188 20.820312 234.835938 21.570312 237.539062 22.390625 C 240.238281 23.210938 242.917969 24.097656 245.578125 25.046875 C 248.234375 26 250.867188 27.015625 253.476562 28.09375 C 256.085938 29.175781 258.664062 30.320312 261.21875 31.527344 C 263.769531 32.734375 266.289062 34 268.78125 35.332031 C 271.269531 36.664062 273.726562 38.054688 276.148438 39.503906 C 278.566406 40.957031 280.953125 42.46875 283.300781 44.035156 C 285.648438 45.605469 287.953125 47.230469 290.222656 48.910156 C 292.488281 50.59375 294.714844 52.328125 296.898438 54.121094 C 299.078125 55.910156 301.214844 57.753906 303.308594 59.648438 C 305.398438 61.546875 307.445312 63.492188 309.441406 65.488281 C 311.4375 67.484375 313.382812 69.527344 315.277344 71.621094 C 317.175781 73.710938 319.015625 75.847656 320.808594 78.03125 C 322.597656 80.214844 324.335938 82.4375 326.015625 84.707031 C 327.699219 86.972656 329.324219 89.28125 330.890625 91.628906 C 332.460938 93.976562 333.972656 96.359375 335.421875 98.78125 C 336.875 101.203125 338.265625 103.660156 339.59375 106.148438 C 340.925781 108.636719 342.195312 111.160156 343.402344 113.710938 C 344.609375 116.261719 345.753906 118.84375 346.832031 121.449219 C 347.914062 124.058594 348.929688 126.691406 349.878906 129.351562 C 350.832031 132.007812 351.714844 134.6875 352.535156 137.390625 C 353.355469 140.089844 354.109375 142.8125 354.792969 145.550781 C 355.480469 148.289062 356.097656 151.042969 356.648438 153.8125 C 357.199219 156.578125 357.683594 159.359375 358.097656 162.152344 C 358.511719 164.945312 358.855469 167.746094 359.132812 170.554688 C 359.410156 173.367188 359.617188 176.179688 359.757812 179 C 359.894531 181.820312 359.964844 184.640625 359.964844 187.464844 Z M 359.964844 187.464844 " fill-opacity="1" fill-rule="nonzero"/></g><path fill="#ffffff" d="M 263.222656 164.6875 C 262.761719 164.539062 262.285156 164.484375 261.804688 164.519531 C 261.320312 164.558594 260.859375 164.683594 260.425781 164.898438 C 259.992188 165.117188 259.613281 165.40625 259.292969 165.769531 C 258.972656 166.136719 258.730469 166.546875 258.570312 167.003906 C 258.410156 167.460938 258.34375 167.933594 258.367188 168.417969 C 258.394531 168.902344 258.507812 169.363281 258.714844 169.804688 C 258.921875 170.242188 259.203125 170.628906 259.558594 170.957031 C 259.914062 171.285156 260.320312 171.535156 260.773438 171.707031 C 270.714844 175.167969 276.886719 179.734375 276.886719 183.628906 C 276.886719 191.394531 252.8125 202.222656 213.617188 202.222656 C 174.417969 202.222656 150.347656 191.394531 150.347656 183.628906 C 150.347656 175.867188 174.417969 165.035156 213.617188 165.035156 C 214.109375 165.035156 214.582031 164.941406 215.039062 164.753906 C 215.496094 164.566406 215.898438 164.296875 216.246094 163.949219 C 216.597656 163.597656 216.863281 163.195312 217.054688 162.742188 C 217.242188 162.285156 217.335938 161.8125 217.335938 161.316406 C 217.335938 160.824219 217.242188 160.351562 217.054688 159.894531 C 216.863281 159.4375 216.597656 159.039062 216.246094 158.6875 C 215.898438 158.339844 215.496094 158.070312 215.039062 157.882812 C 214.582031 157.695312 214.109375 157.597656 213.617188 157.597656 C 179.335938 157.597656 142.902344 166.722656 142.902344 183.628906 L 142.902344 198.503906 C 142.902344 215.414062 179.335938 224.535156 213.617188 224.535156 C 247.894531 224.535156 284.328125 215.414062 284.328125 198.503906 L 284.328125 183.628906 C 284.328125 178.335938 280.667969 170.753906 263.222656 164.6875 Z M 213.617188 217.097656 C 174.417969 217.097656 150.347656 206.269531 150.347656 198.503906 L 150.347656 195.757812 C 162.742188 204.851562 188.738281 209.660156 213.617188 209.660156 C 238.492188 209.660156 264.488281 204.851562 276.886719 195.757812 L 276.886719 198.503906 C 276.886719 206.269531 252.8125 217.097656 213.617188 217.097656 Z M 213.617188 217.097656 " fill-opacity="1" fill-rule="nonzero"/><g clip-path="url(#edd818882d)"><path fill="#ffffff" d="M 291.773438 228.253906 C 291.277344 228.253906 290.804688 228.347656 290.347656 228.535156 C 289.890625 228.726562 289.488281 228.992188 289.140625 229.34375 C 288.792969 229.691406 288.523438 230.09375 288.332031 230.546875 C 288.144531 231.003906 288.050781 231.480469 288.050781 231.972656 C 288.050781 239.554688 259.054688 250.566406 213.617188 250.566406 C 213.121094 250.566406 212.648438 250.660156 212.191406 250.847656 C 211.734375 251.035156 211.332031 251.304688 210.984375 251.652344 C 210.636719 252.003906 210.367188 252.40625 210.175781 252.859375 C 209.988281 253.316406 209.894531 253.789062 209.894531 254.285156 L 209.894531 280.3125 C 209.894531 280.808594 209.988281 281.28125 210.175781 281.738281 C 210.367188 282.191406 210.636719 282.59375 210.984375 282.941406 C 211.332031 283.292969 211.734375 283.558594 212.191406 283.75 C 212.648438 283.9375 213.121094 284.03125 213.617188 284.03125 C 254.304688 284.03125 295.492188 275.109375 295.492188 258 L 295.492188 231.972656 C 295.492188 231.480469 295.398438 231.003906 295.210938 230.546875 C 295.019531 230.09375 294.753906 229.691406 294.402344 229.34375 C 294.054688 228.992188 293.652344 228.726562 293.195312 228.535156 C 292.738281 228.347656 292.265625 228.253906 291.773438 228.253906 Z M 288.050781 258 C 288.050781 265.371094 260.632812 275.988281 217.335938 276.570312 L 217.335938 257.976562 C 246.324219 257.605469 274.933594 252.667969 288.050781 243.515625 Z M 288.050781 258 " fill-opacity="1" fill-rule="nonzero"/></g><g clip-path="url(#f40a6b3a17)"><path fill="#ffffff" d="M 282.203125 198.503906 C 281.757812 198.292969 281.289062 198.175781 280.796875 198.152344 C 280.304688 198.125 279.824219 198.199219 279.359375 198.363281 C 278.894531 198.527344 278.480469 198.777344 278.113281 199.105469 C 277.75 199.4375 277.460938 199.824219 277.25 200.269531 C 277.035156 200.714844 276.917969 201.183594 276.894531 201.675781 C 276.867188 202.167969 276.9375 202.648438 277.101562 203.113281 C 277.269531 203.574219 277.515625 203.992188 277.847656 204.355469 C 278.175781 204.722656 278.566406 205.011719 279.011719 205.222656 C 284.671875 207.921875 288.050781 210.964844 288.050781 213.378906 C 288.050781 220.960938 259.054688 231.972656 213.617188 231.972656 C 168.175781 231.972656 139.179688 220.960938 139.179688 213.378906 C 139.179688 210.964844 142.558594 207.921875 148.222656 205.238281 C 148.667969 205.027344 149.054688 204.738281 149.386719 204.371094 C 149.71875 204.003906 149.964844 203.589844 150.132812 203.125 C 150.296875 202.660156 150.367188 202.179688 150.34375 201.6875 C 150.320312 201.195312 150.199219 200.726562 149.988281 200.277344 C 149.777344 199.832031 149.488281 199.445312 149.121094 199.113281 C 148.757812 198.78125 148.339844 198.53125 147.875 198.367188 C 147.410156 198.199219 146.929688 198.128906 146.4375 198.152344 C 145.945312 198.175781 145.476562 198.292969 145.027344 198.503906 C 136.203125 202.699219 131.738281 207.699219 131.738281 213.378906 L 131.738281 276.59375 C 131.738281 293.699219 172.925781 302.625 213.617188 302.625 C 254.304688 302.625 295.492188 293.699219 295.492188 276.59375 L 295.492188 213.378906 C 295.492188 207.699219 291.027344 202.699219 282.203125 198.503906 Z M 213.617188 295.1875 C 168.175781 295.1875 139.179688 284.175781 139.179688 276.59375 L 139.179688 224.90625 C 152.855469 234.464844 183.367188 239.410156 213.617188 239.410156 C 243.867188 239.410156 274.375 234.464844 288.050781 224.90625 L 288.050781 276.59375 C 288.050781 284.175781 259.054688 295.1875 213.617188 295.1875 Z M 213.617188 295.1875 " fill-opacity="1" fill-rule="nonzero"/></g><path fill="#ffffff" d="M 188.035156 88.824219 L 175.042969 75.460938 C 173.835938 74.289062 172.441406 73.410156 170.863281 72.820312 C 169.289062 72.230469 167.660156 71.980469 165.976562 72.070312 C 151.515625 72.070312 124.816406 89.550781 99.527344 115.554688 C 71.164062 144.738281 48.660156 180.675781 60.550781 192.90625 L 73.546875 206.273438 C 74.753906 207.441406 76.148438 208.320312 77.722656 208.910156 C 79.300781 209.5 80.929688 209.75 82.609375 209.660156 C 97.074219 209.660156 123.773438 192.183594 149.058594 166.179688 C 177.425781 136.996094 199.925781 101.054688 188.035156 88.824219 Z M 104.871094 120.738281 C 131.191406 93.667969 155.558594 79.507812 165.976562 79.507812 C 166.648438 79.441406 167.308594 79.507812 167.953125 79.703125 C 168.597656 79.902344 169.179688 80.214844 169.699219 80.644531 C 175.160156 86.253906 162.972656 114.457031 130.726562 147.628906 C 104.40625 174.707031 80.058594 188.859375 69.609375 188.859375 C 68.941406 188.925781 68.285156 188.863281 67.640625 188.667969 C 66.996094 188.476562 66.410156 188.167969 65.890625 187.742188 C 60.4375 182.097656 72.628906 153.902344 104.871094 120.738281 Z M 143.71875 160.996094 C 117.398438 188.0625 93.050781 202.222656 82.609375 202.222656 C 81.941406 202.292969 81.285156 202.230469 80.640625 202.035156 C 79.992188 201.84375 79.410156 201.53125 78.890625 201.105469 L 73.78125 195.839844 C 88.84375 193.070312 113.023438 176.5 136.0625 152.808594 C 157.160156 131.105469 174.988281 105.679688 177.859375 89.03125 L 182.699219 94.007812 C 188.15625 99.621094 175.964844 127.820312 143.71875 160.996094 Z M 143.71875 160.996094 " fill-opacity="1" fill-rule="nonzero"/><path fill="#ffffff" d="M 254.554688 187.347656 C 254.0625 187.347656 253.585938 187.253906 253.128906 187.066406 C 252.675781 186.875 252.273438 186.609375 251.921875 186.257812 C 251.574219 185.910156 251.304688 185.507812 251.117188 185.054688 C 250.925781 184.597656 250.832031 184.121094 250.832031 183.628906 C 250.804688 181.023438 250.5 178.453125 249.917969 175.914062 C 249.335938 173.371094 248.488281 170.925781 247.378906 168.566406 C 246.265625 166.210938 244.917969 164 243.328125 161.933594 C 241.738281 159.867188 239.945312 157.996094 237.953125 156.316406 C 233.148438 165.652344 218.824219 176.191406 202.449219 176.191406 C 199.976562 176.1875 197.523438 176.398438 195.085938 176.832031 C 192.652344 177.265625 190.273438 177.914062 187.953125 178.773438 C 185.632812 179.632812 183.410156 180.691406 181.28125 181.953125 C 179.152344 183.210938 177.152344 184.648438 175.28125 186.265625 C 174.929688 186.605469 174.527344 186.863281 174.074219 187.042969 C 173.621094 187.222656 173.152344 187.3125 172.664062 187.304688 C 172.175781 187.300781 171.707031 187.203125 171.257812 187.015625 C 170.804688 186.828125 170.410156 186.558594 170.066406 186.214844 C 169.71875 185.867188 169.453125 185.472656 169.265625 185.019531 C 169.078125 184.570312 168.980469 184.101562 168.976562 183.613281 C 168.976562 183.128906 169.0625 182.65625 169.246094 182.203125 C 169.425781 181.753906 169.6875 181.351562 170.027344 181 C 172.234375 179.027344 174.605469 177.269531 177.140625 175.734375 C 179.671875 174.195312 182.324219 172.90625 185.097656 171.859375 C 187.867188 170.8125 190.710938 170.027344 193.628906 169.503906 C 196.546875 168.984375 199.488281 168.734375 202.449219 168.753906 C 219.871094 168.753906 232.222656 154.65625 232.222656 150.164062 C 232.222656 149.492188 232.394531 148.867188 232.730469 148.289062 C 233.070312 147.710938 233.53125 147.257812 234.113281 146.925781 C 234.695312 146.597656 235.324219 146.4375 235.996094 146.445312 C 236.664062 146.453125 237.289062 146.628906 237.863281 146.976562 C 239.394531 147.964844 240.859375 149.042969 242.257812 150.210938 C 243.65625 151.378906 244.980469 152.628906 246.226562 153.957031 C 247.472656 155.289062 248.632812 156.6875 249.707031 158.160156 C 250.78125 159.632812 251.761719 161.164062 252.648438 162.757812 C 253.535156 164.347656 254.320312 165.988281 255.007812 167.675781 C 255.691406 169.363281 256.273438 171.089844 256.746094 172.847656 C 257.222656 174.605469 257.585938 176.386719 257.84375 178.191406 C 258.097656 179.996094 258.242188 181.808594 258.277344 183.628906 C 258.277344 184.121094 258.183594 184.597656 257.992188 185.054688 C 257.804688 185.507812 257.535156 185.910156 257.1875 186.257812 C 256.835938 186.609375 256.433594 186.875 255.980469 187.066406 C 255.523438 187.253906 255.046875 187.347656 254.554688 187.347656 Z M 254.554688 187.347656 " fill-opacity="1" fill-rule="nonzero"/></svg>